solid ASCII
  facet normal 3.090167e-01 9.510566e-01 -0.000000e+00
    outer loop
      vertex   2.000000e+00 5.600000e+00 0.000000e+00
      vertex   2.000000e+00 5.600000e+00 6.000000e+00
      vertex   2.293893e+00 5.504509e+00 0.000000e+00
    endloop
  endfacet
  facet normal 3.090167e-01 9.510566e-01 -0.000000e+00
    outer loop
      vertex   2.293893e+00 5.504509e+00 0.000000e+00
      vertex   2.000000e+00 5.600000e+00 6.000000e+00
      vertex   2.293893e+00 5.504509e+00 6.000000e+00
    endloop
  endfacet
  facet normal 8.090174e-01 5.877847e-01 -0.000000e+00
    outer loop
      vertex   2.293893e+00 5.504509e+00 0.000000e+00
      vertex   2.293893e+00 5.504509e+00 6.000000e+00
      vertex   2.475528e+00 5.254508e+00 6.000000e+00
    endloop
  endfacet
  facet normal 8.090174e-01 5.877847e-01 0.000000e+00
    outer loop
      vertex   2.293893e+00 5.504509e+00 0.000000e+00
      vertex   2.475528e+00 5.254508e+00 6.000000e+00
      vertex   2.475528e+00 5.254508e+00 0.000000e+00
    endloop
  endfacet
  facet normal 1.000000e+00 0.000000e+00 -0.000000e+00
    outer loop
      vertex   2.475528e+00 5.254508e+00 0.000000e+00
      vertex   2.475528e+00 5.254508e+00 6.000000e+00
      vertex   2.475528e+00 4.945492e+00 6.000000e+00
    endloop
  endfacet
  facet normal 1.000000e+00 0.000000e+00 0.000000e+00
    outer loop
      vertex   2.475528e+00 5.254508e+00 0.000000e+00
      vertex   2.475528e+00 4.945492e+00 6.000000e+00
      vertex   2.475528e+00 4.945492e+00 0.000000e+00
    endloop
  endfacet
  facet normal 8.090171e-01 -5.877851e-01 0.000000e+00
    outer loop
      vertex   2.475528e+00 4.945492e+00 0.000000e+00
      vertex   2.475528e+00 4.945492e+00 6.000000e+00
      vertex   2.293893e+00 4.695491e+00 6.000000e+00
    endloop
  endfacet
  facet normal 8.090171e-01 -5.877851e-01 0.000000e+00
    outer loop
      vertex   2.475528e+00 4.945492e+00 0.000000e+00
      vertex   2.293893e+00 4.695491e+00 6.000000e+00
      vertex   2.293893e+00 4.695491e+00 0.000000e+00
    endloop
  endfacet
  facet normal 3.090167e-01 -9.510566e-01 0.000000e+00
    outer loop
      vertex   2.293893e+00 4.695491e+00 0.000000e+00
      vertex   2.293893e+00 4.695491e+00 6.000000e+00
      vertex   2.000000e+00 4.600000e+00 6.000000e+00
    endloop
  endfacet
  facet normal 3.090167e-01 -9.510566e-01 0.000000e+00
    outer loop
      vertex   2.293893e+00 4.695491e+00 0.000000e+00
      vertex   2.000000e+00 4.600000e+00 6.000000e+00
      vertex   2.000000e+00 4.600000e+00 0.000000e+00
    endloop
  endfacet
  facet normal -3.090156e-01 -9.510570e-01 0.000000e+00
    outer loop
      vertex   5.800000e+01 4.600000e+00 0.000000e+00
      vertex   5.800000e+01 4.600000e+00 6.000000e+00
      vertex   5.770611e+01 4.695491e+00 0.000000e+00
    endloop
  endfacet
  facet normal -3.090156e-01 -9.510570e-01 0.000000e+00
    outer loop
      vertex   5.770611e+01 4.695491e+00 0.000000e+00
      vertex   5.800000e+01 4.600000e+00 6.000000e+00
      vertex   5.770611e+01 4.695491e+00 6.000000e+00
    endloop
  endfacet
  facet normal -8.090152e-01 -5.877877e-01 0.000000e+00
    outer loop
      vertex   5.770611e+01 4.695491e+00 0.000000e+00
      vertex   5.770611e+01 4.695491e+00 6.000000e+00
      vertex   5.752447e+01 4.945492e+00 6.000000e+00
    endloop
  endfacet
  facet normal -8.090152e-01 -5.877877e-01 0.000000e+00
    outer loop
      vertex   5.770611e+01 4.695491e+00 0.000000e+00
      vertex   5.752447e+01 4.945492e+00 6.000000e+00
      vertex   5.752447e+01 4.945492e+00 0.000000e+00
    endloop
  endfacet
  facet normal -1.000000e+00 0.000000e+00 0.000000e+00
    outer loop
      vertex   5.752447e+01 4.945492e+00 0.000000e+00
      vertex   5.752447e+01 4.945492e+00 6.000000e+00
      vertex   5.752447e+01 5.254508e+00 6.000000e+00
    endloop
  endfacet
  facet normal -1.000000e+00 0.000000e+00 0.000000e+00
    outer loop
      vertex   5.752447e+01 4.945492e+00 0.000000e+00
      vertex   5.752447e+01 5.254508e+00 6.000000e+00
      vertex   5.752447e+01 5.254508e+00 0.000000e+00
    endloop
  endfacet
  facet normal -8.090156e-01 5.877872e-01 0.000000e+00
    outer loop
      vertex   5.752447e+01 5.254508e+00 0.000000e+00
      vertex   5.752447e+01 5.254508e+00 6.000000e+00
      vertex   5.770611e+01 5.504509e+00 6.000000e+00
    endloop
  endfacet
  facet normal -8.090156e-01 5.877872e-01 0.000000e+00
    outer loop
      vertex   5.752447e+01 5.254508e+00 0.000000e+00
      vertex   5.770611e+01 5.504509e+00 6.000000e+00
      vertex   5.770611e+01 5.504509e+00 0.000000e+00
    endloop
  endfacet
  facet normal -3.090156e-01 9.510570e-01 0.000000e+00
    outer loop
      vertex   5.770611e+01 5.504509e+00 0.000000e+00
      vertex   5.770611e+01 5.504509e+00 6.000000e+00
      vertex   5.800000e+01 5.600000e+00 6.000000e+00
    endloop
  endfacet
  facet normal -3.090156e-01 9.510570e-01 0.000000e+00
    outer loop
      vertex   5.770611e+01 5.504509e+00 0.000000e+00
      vertex   5.800000e+01 5.600000e+00 6.000000e+00
      vertex   5.800000e+01 5.600000e+00 0.000000e+00
    endloop
  endfacet
  facet normal 1.000000e+00 0.000000e+00 0.000000e+00
    outer loop
      vertex   2.000000e+00 5.600000e+00 0.000000e+00
      vertex   2.000000e+00 8.000000e+00 0.000000e+00
      vertex   2.000000e+00 5.600000e+00 6.000000e+00
    endloop
  endfacet
  facet normal 1.000000e+00 -0.000000e+00 0.000000e+00
    outer loop
      vertex   2.000000e+00 5.600000e+00 6.000000e+00
      vertex   2.000000e+00 8.000000e+00 0.000000e+00
      vertex   2.000000e+00 8.000000e+00 6.000000e+00
    endloop
  endfacet
  facet normal 1.000000e+00 0.000000e+00 0.000000e+00
    outer loop
      vertex   2.000000e+00 4.600000e+00 6.000000e+00
      vertex   2.000000e+00 1.500000e+00 6.000000e+00
      vertex   2.000000e+00 4.600000e+00 0.000000e+00
    endloop
  endfacet
  facet normal 1.000000e+00 0.000000e+00 0.000000e+00
    outer loop
      vertex   2.000000e+00 4.600000e+00 0.000000e+00
      vertex   2.000000e+00 1.500000e+00 6.000000e+00
      vertex   2.000000e+00 1.500000e+00 0.000000e+00
    endloop
  endfacet
  facet normal -1.000000e+00 0.000000e+00 0.000000e+00
    outer loop
      vertex   5.800000e+01 4.600000e+00 0.000000e+00
      vertex   5.800000e+01 1.500000e+00 0.000000e+00
      vertex   5.800000e+01 4.600000e+00 6.000000e+00
    endloop
  endfacet
  facet normal -1.000000e+00 -0.000000e+00 0.000000e+00
    outer loop
      vertex   5.800000e+01 4.600000e+00 6.000000e+00
      vertex   5.800000e+01 1.500000e+00 0.000000e+00
      vertex   5.800000e+01 1.500000e+00 6.000000e+00
    endloop
  endfacet
  facet normal -1.000000e+00 0.000000e+00 0.000000e+00
    outer loop
      vertex   5.800000e+01 5.600000e+00 6.000000e+00
      vertex   5.800000e+01 8.000000e+00 6.000000e+00
      vertex   5.800000e+01 5.600000e+00 0.000000e+00
    endloop
  endfacet
  facet normal -1.000000e+00 0.000000e+00 0.000000e+00
    outer loop
      vertex   5.800000e+01 5.600000e+00 0.000000e+00
      vertex   5.800000e+01 8.000000e+00 6.000000e+00
      vertex   5.800000e+01 8.000000e+00 0.000000e+00
    endloop
  endfacet
  facet normal 0.000000e+00 1.000000e+00 -0.000000e+00
    outer loop
      vertex   5.800000e+01 1.500000e+00 0.000000e+00
      vertex   2.000000e+00 1.500000e+00 0.000000e+00
      vertex   5.800000e+01 1.500000e+00 6.000000e+00
    endloop
  endfacet
  facet normal 0.000000e+00 1.000000e+00 0.000000e+00
    outer loop
      vertex   5.800000e+01 1.500000e+00 6.000000e+00
      vertex   2.000000e+00 1.500000e+00 0.000000e+00
      vertex   2.000000e+00 1.500000e+00 6.000000e+00
    endloop
  endfacet
  facet normal -0.000000e+00 1.000000e+00 0.000000e+00
    outer loop
      vertex   5.800000e+01 8.000000e+00 6.000000e+00
      vertex   6.000000e+01 8.000000e+00 6.000000e+00
      vertex   5.800000e+01 8.000000e+00 0.000000e+00
    endloop
  endfacet
  facet normal 0.000000e+00 1.000000e+00 0.000000e+00
    outer loop
      vertex   5.800000e+01 8.000000e+00 0.000000e+00
      vertex   6.000000e+01 8.000000e+00 6.000000e+00
      vertex   6.000000e+01 8.000000e+00 0.000000e+00
    endloop
  endfacet
  facet normal 0.000000e+00 1.000000e+00 -0.000000e+00
    outer loop
      vertex   2.000000e+00 8.000000e+00 0.000000e+00
      vertex   0.000000e+00 8.000000e+00 0.000000e+00
      vertex   2.000000e+00 8.000000e+00 6.000000e+00
    endloop
  endfacet
  facet normal 0.000000e+00 1.000000e+00 0.000000e+00
    outer loop
      vertex   2.000000e+00 8.000000e+00 6.000000e+00
      vertex   0.000000e+00 8.000000e+00 0.000000e+00
      vertex   0.000000e+00 8.000000e+00 6.000000e+00
    endloop
  endfacet
  facet normal -0.000000e+00 -0.000000e+00 -1.000000e+00
    outer loop
      vertex   2.000000e+00 8.000000e+00 0.000000e+00
      vertex   2.000000e+00 5.600000e+00 0.000000e+00
      vertex   0.000000e+00 8.000000e+00 0.000000e+00
    endloop
  endfacet
  facet normal 0.000000e+00 0.000000e+00 -1.000000e+00
    outer loop
      vertex   0.000000e+00 8.000000e+00 0.000000e+00
      vertex   2.000000e+00 5.600000e+00 0.000000e+00
      vertex   2.000000e+00 4.600000e+00 0.000000e+00
    endloop
  endfacet
  facet normal 0.000000e+00 0.000000e+00 -1.000000e+00
    outer loop
      vertex   0.000000e+00 8.000000e+00 0.000000e+00
      vertex   2.000000e+00 4.600000e+00 0.000000e+00
      vertex   0.000000e+00 0.000000e+00 0.000000e+00
    endloop
  endfacet
  facet normal 0.000000e+00 0.000000e+00 -1.000000e+00
    outer loop
      vertex   0.000000e+00 0.000000e+00 0.000000e+00
      vertex   2.000000e+00 4.600000e+00 0.000000e+00
      vertex   2.000000e+00 1.500000e+00 0.000000e+00
    endloop
  endfacet
  facet normal 0.000000e+00 0.000000e+00 -1.000000e+00
    outer loop
      vertex   0.000000e+00 0.000000e+00 0.000000e+00
      vertex   2.000000e+00 1.500000e+00 0.000000e+00
      vertex   5.800000e+01 1.500000e+00 0.000000e+00
    endloop
  endfacet
  facet normal -0.000000e+00 -0.000000e+00 -1.000000e+00
    outer loop
      vertex   2.293893e+00 5.504509e+00 0.000000e+00
      vertex   2.475528e+00 5.254508e+00 0.000000e+00
      vertex   2.000000e+00 5.600000e+00 0.000000e+00
    endloop
  endfacet
  facet normal 0.000000e+00 0.000000e+00 -1.000000e+00
    outer loop
      vertex   2.000000e+00 5.600000e+00 0.000000e+00
      vertex   2.475528e+00 5.254508e+00 0.000000e+00
      vertex   2.000000e+00 4.600000e+00 0.000000e+00
    endloop
  endfacet
  facet normal 0.000000e+00 -0.000000e+00 -1.000000e+00
    outer loop
      vertex   2.475528e+00 5.254508e+00 0.000000e+00
      vertex   2.475528e+00 4.945492e+00 0.000000e+00
      vertex   2.000000e+00 4.600000e+00 0.000000e+00
    endloop
  endfacet
  facet normal 0.000000e+00 0.000000e+00 -1.000000e+00
    outer loop
      vertex   2.000000e+00 4.600000e+00 0.000000e+00
      vertex   2.475528e+00 4.945492e+00 0.000000e+00
      vertex   2.293893e+00 4.695491e+00 0.000000e+00
    endloop
  endfacet
  facet normal 0.000000e+00 0.000000e+00 -1.000000e+00
    outer loop
      vertex   0.000000e+00 0.000000e+00 0.000000e+00
      vertex   5.800000e+01 1.500000e+00 0.000000e+00
      vertex   6.000000e+01 0.000000e+00 0.000000e+00
    endloop
  endfacet
  facet normal 0.000000e+00 0.000000e+00 -1.000000e+00
    outer loop
      vertex   6.000000e+01 0.000000e+00 0.000000e+00
      vertex   5.800000e+01 1.500000e+00 0.000000e+00
      vertex   5.800000e+01 4.600000e+00 0.000000e+00
    endloop
  endfacet
  facet normal 0.000000e+00 0.000000e+00 -1.000000e+00
    outer loop
      vertex   6.000000e+01 0.000000e+00 0.000000e+00
      vertex   5.800000e+01 4.600000e+00 0.000000e+00
      vertex   6.000000e+01 8.000000e+00 0.000000e+00
    endloop
  endfacet
  facet normal 0.000000e+00 0.000000e+00 -1.000000e+00
    outer loop
      vertex   6.000000e+01 8.000000e+00 0.000000e+00
      vertex   5.800000e+01 4.600000e+00 0.000000e+00
      vertex   5.800000e+01 5.600000e+00 0.000000e+00
    endloop
  endfacet
  facet normal -0.000000e+00 0.000000e+00 -1.000000e+00
    outer loop
      vertex   6.000000e+01 8.000000e+00 0.000000e+00
      vertex   5.800000e+01 5.600000e+00 0.000000e+00
      vertex   5.800000e+01 8.000000e+00 0.000000e+00
    endloop
  endfacet
  facet normal 0.000000e+00 0.000000e+00 -1.000000e+00
    outer loop
      vertex   5.770611e+01 4.695491e+00 0.000000e+00
      vertex   5.752447e+01 4.945492e+00 0.000000e+00
      vertex   5.800000e+01 4.600000e+00 0.000000e+00
    endloop
  endfacet
  facet normal 0.000000e+00 0.000000e+00 -1.000000e+00
    outer loop
      vertex   5.800000e+01 4.600000e+00 0.000000e+00
      vertex   5.752447e+01 4.945492e+00 0.000000e+00
      vertex   5.752447e+01 5.254508e+00 0.000000e+00
    endloop
  endfacet
  facet normal 0.000000e+00 0.000000e+00 -1.000000e+00
    outer loop
      vertex   5.800000e+01 4.600000e+00 0.000000e+00
      vertex   5.752447e+01 5.254508e+00 0.000000e+00
      vertex   5.800000e+01 5.600000e+00 0.000000e+00
    endloop
  endfacet
  facet normal 0.000000e+00 0.000000e+00 -1.000000e+00
    outer loop
      vertex   5.800000e+01 5.600000e+00 0.000000e+00
      vertex   5.752447e+01 5.254508e+00 0.000000e+00
      vertex   5.770611e+01 5.504509e+00 0.000000e+00
    endloop
  endfacet
  facet normal 0.000000e+00 -1.000000e+00 0.000000e+00
    outer loop
      vertex   0.000000e+00 0.000000e+00 0.000000e+00
      vertex   6.000000e+01 0.000000e+00 0.000000e+00
      vertex   0.000000e+00 0.000000e+00 6.000000e+00
    endloop
  endfacet
  facet normal 0.000000e+00 -1.000000e+00 0.000000e+00
    outer loop
      vertex   0.000000e+00 0.000000e+00 6.000000e+00
      vertex   6.000000e+01 0.000000e+00 0.000000e+00
      vertex   6.000000e+01 0.000000e+00 6.000000e+00
    endloop
  endfacet
  facet normal -1.000000e+00 0.000000e+00 0.000000e+00
    outer loop
      vertex   0.000000e+00 8.000000e+00 0.000000e+00
      vertex   0.000000e+00 0.000000e+00 0.000000e+00
      vertex   0.000000e+00 8.000000e+00 6.000000e+00
    endloop
  endfacet
  facet normal -1.000000e+00 -0.000000e+00 0.000000e+00
    outer loop
      vertex   0.000000e+00 8.000000e+00 6.000000e+00
      vertex   0.000000e+00 0.000000e+00 0.000000e+00
      vertex   0.000000e+00 0.000000e+00 6.000000e+00
    endloop
  endfacet
  facet normal 1.000000e+00 0.000000e+00 0.000000e+00
    outer loop
      vertex   6.000000e+01 0.000000e+00 0.000000e+00
      vertex   6.000000e+01 8.000000e+00 0.000000e+00
      vertex   6.000000e+01 0.000000e+00 6.000000e+00
    endloop
  endfacet
  facet normal 1.000000e+00 -0.000000e+00 0.000000e+00
    outer loop
      vertex   6.000000e+01 0.000000e+00 6.000000e+00
      vertex   6.000000e+01 8.000000e+00 0.000000e+00
      vertex   6.000000e+01 8.000000e+00 6.000000e+00
    endloop
  endfacet
  facet normal 0.000000e+00 0.000000e+00 1.000000e+00
    outer loop
      vertex   2.000000e+00 4.600000e+00 6.000000e+00
      vertex   0.000000e+00 0.000000e+00 6.000000e+00
      vertex   2.000000e+00 1.500000e+00 6.000000e+00
    endloop
  endfacet
  facet normal 0.000000e+00 0.000000e+00 1.000000e+00
    outer loop
      vertex   2.000000e+00 1.500000e+00 6.000000e+00
      vertex   0.000000e+00 0.000000e+00 6.000000e+00
      vertex   6.000000e+01 0.000000e+00 6.000000e+00
    endloop
  endfacet
  facet normal -0.000000e+00 0.000000e+00 1.000000e+00
    outer loop
      vertex   2.000000e+00 1.500000e+00 6.000000e+00
      vertex   6.000000e+01 0.000000e+00 6.000000e+00
      vertex   5.800000e+01 1.500000e+00 6.000000e+00
    endloop
  endfacet
  facet normal -0.000000e+00 0.000000e+00 1.000000e+00
    outer loop
      vertex   5.800000e+01 1.500000e+00 6.000000e+00
      vertex   6.000000e+01 0.000000e+00 6.000000e+00
      vertex   5.800000e+01 4.600000e+00 6.000000e+00
    endloop
  endfacet
  facet normal -0.000000e+00 0.000000e+00 1.000000e+00
    outer loop
      vertex   5.800000e+01 4.600000e+00 6.000000e+00
      vertex   6.000000e+01 0.000000e+00 6.000000e+00
      vertex   6.000000e+01 8.000000e+00 6.000000e+00
    endloop
  endfacet
  facet normal 0.000000e+00 0.000000e+00 1.000000e+00
    outer loop
      vertex   5.800000e+01 4.600000e+00 6.000000e+00
      vertex   6.000000e+01 8.000000e+00 6.000000e+00
      vertex   5.800000e+01 5.600000e+00 6.000000e+00
    endloop
  endfacet
  facet normal 0.000000e+00 0.000000e+00 1.000000e+00
    outer loop
      vertex   5.800000e+01 5.600000e+00 6.000000e+00
      vertex   6.000000e+01 8.000000e+00 6.000000e+00
      vertex   5.800000e+01 8.000000e+00 6.000000e+00
    endloop
  endfacet
  facet normal 0.000000e+00 -0.000000e+00 1.000000e+00
    outer loop
      vertex   2.293893e+00 4.695491e+00 6.000000e+00
      vertex   2.475528e+00 4.945492e+00 6.000000e+00
      vertex   2.000000e+00 4.600000e+00 6.000000e+00
    endloop
  endfacet
  facet normal 0.000000e+00 0.000000e+00 1.000000e+00
    outer loop
      vertex   2.000000e+00 4.600000e+00 6.000000e+00
      vertex   2.475528e+00 4.945492e+00 6.000000e+00
      vertex   2.475528e+00 5.254508e+00 6.000000e+00
    endloop
  endfacet
  facet normal 0.000000e+00 0.000000e+00 1.000000e+00
    outer loop
      vertex   2.000000e+00 4.600000e+00 6.000000e+00
      vertex   2.475528e+00 5.254508e+00 6.000000e+00
      vertex   2.000000e+00 5.600000e+00 6.000000e+00
    endloop
  endfacet
  facet normal 0.000000e+00 0.000000e+00 1.000000e+00
    outer loop
      vertex   2.000000e+00 5.600000e+00 6.000000e+00
      vertex   2.475528e+00 5.254508e+00 6.000000e+00
      vertex   2.293893e+00 5.504509e+00 6.000000e+00
    endloop
  endfacet
  facet normal 0.000000e+00 0.000000e+00 1.000000e+00
    outer loop
      vertex   2.000000e+00 8.000000e+00 6.000000e+00
      vertex   0.000000e+00 8.000000e+00 6.000000e+00
      vertex   2.000000e+00 5.600000e+00 6.000000e+00
    endloop
  endfacet
  facet normal 0.000000e+00 0.000000e+00 1.000000e+00
    outer loop
      vertex   2.000000e+00 5.600000e+00 6.000000e+00
      vertex   0.000000e+00 8.000000e+00 6.000000e+00
      vertex   2.000000e+00 4.600000e+00 6.000000e+00
    endloop
  endfacet
  facet normal 0.000000e+00 0.000000e+00 1.000000e+00
    outer loop
      vertex   0.000000e+00 8.000000e+00 6.000000e+00
      vertex   0.000000e+00 0.000000e+00 6.000000e+00
      vertex   2.000000e+00 4.600000e+00 6.000000e+00
    endloop
  endfacet
  facet normal -0.000000e+00 0.000000e+00 1.000000e+00
    outer loop
      vertex   5.770611e+01 5.504509e+00 6.000000e+00
      vertex   5.752447e+01 5.254508e+00 6.000000e+00
      vertex   5.800000e+01 5.600000e+00 6.000000e+00
    endloop
  endfacet
  facet normal 0.000000e+00 0.000000e+00 1.000000e+00
    outer loop
      vertex   5.800000e+01 5.600000e+00 6.000000e+00
      vertex   5.752447e+01 5.254508e+00 6.000000e+00
      vertex   5.800000e+01 4.600000e+00 6.000000e+00
    endloop
  endfacet
  facet normal 0.000000e+00 0.000000e+00 1.000000e+00
    outer loop
      vertex   5.752447e+01 5.254508e+00 6.000000e+00
      vertex   5.752447e+01 4.945492e+00 6.000000e+00
      vertex   5.800000e+01 4.600000e+00 6.000000e+00
    endloop
  endfacet
  facet normal 0.000000e+00 0.000000e+00 1.000000e+00
    outer loop
      vertex   5.800000e+01 4.600000e+00 6.000000e+00
      vertex   5.752447e+01 4.945492e+00 6.000000e+00
      vertex   5.770611e+01 4.695491e+00 6.000000e+00
    endloop
  endfacet
endsolid
