solid ASCII
  facet normal 9.396926e-01 -3.420202e-01 0.000000e+00
    outer loop
      vertex   8.798133e+00 4.571637e+00 2.700000e+01
      vertex   9.500000e+00 6.500000e+00 2.200000e+01
      vertex   9.500000e+00 6.500000e+00 2.700000e+01
    endloop
  endfacet
  facet normal 9.396926e-01 3.420202e-01 0.000000e+00
    outer loop
      vertex   9.500000e+00 6.500000e+00 2.700000e+01
      vertex   9.500000e+00 6.500000e+00 2.200000e+01
      vertex   8.798133e+00 8.428363e+00 2.200000e+01
    endloop
  endfacet
  facet normal 9.396926e-01 3.420202e-01 0.000000e+00
    outer loop
      vertex   9.500000e+00 6.500000e+00 2.700000e+01
      vertex   8.798133e+00 8.428363e+00 2.200000e+01
      vertex   8.798133e+00 8.428363e+00 2.700000e+01
    endloop
  endfacet
  facet normal 5.000001e-01 8.660254e-01 0.000000e+00
    outer loop
      vertex   8.798133e+00 8.428363e+00 2.700000e+01
      vertex   8.798133e+00 8.428363e+00 2.200000e+01
      vertex   7.020944e+00 9.454423e+00 2.200000e+01
    endloop
  endfacet
  facet normal 5.000001e-01 8.660254e-01 0.000000e+00
    outer loop
      vertex   8.798133e+00 8.428363e+00 2.700000e+01
      vertex   7.020944e+00 9.454423e+00 2.200000e+01
      vertex   7.020944e+00 9.454423e+00 2.700000e+01
    endloop
  endfacet
  facet normal -1.736482e-01 9.848078e-01 0.000000e+00
    outer loop
      vertex   7.020944e+00 9.454423e+00 2.700000e+01
      vertex   7.020944e+00 9.454423e+00 2.200000e+01
      vertex   5.000000e+00 9.098076e+00 2.200000e+01
    endloop
  endfacet
  facet normal -1.736482e-01 9.848078e-01 0.000000e+00
    outer loop
      vertex   7.020944e+00 9.454423e+00 2.700000e+01
      vertex   5.000000e+00 9.098076e+00 2.200000e+01
      vertex   5.000000e+00 9.098076e+00 2.700000e+01
    endloop
  endfacet
  facet normal -7.660445e-01 6.427876e-01 0.000000e+00
    outer loop
      vertex   5.000000e+00 9.098076e+00 2.700000e+01
      vertex   5.000000e+00 9.098076e+00 2.200000e+01
      vertex   3.680922e+00 7.526060e+00 2.200000e+01
    endloop
  endfacet
  facet normal -7.660445e-01 6.427876e-01 0.000000e+00
    outer loop
      vertex   5.000000e+00 9.098076e+00 2.700000e+01
      vertex   3.680922e+00 7.526060e+00 2.200000e+01
      vertex   3.680922e+00 7.526060e+00 2.700000e+01
    endloop
  endfacet
  facet normal -1.000000e+00 0.000000e+00 -0.000000e+00
    outer loop
      vertex   3.680922e+00 7.526060e+00 2.700000e+01
      vertex   3.680922e+00 7.526060e+00 2.200000e+01
      vertex   3.680922e+00 5.473940e+00 2.200000e+01
    endloop
  endfacet
  facet normal -1.000000e+00 -0.000000e+00 0.000000e+00
    outer loop
      vertex   3.680922e+00 7.526060e+00 2.700000e+01
      vertex   3.680922e+00 5.473940e+00 2.200000e+01
      vertex   3.680922e+00 5.473940e+00 2.700000e+01
    endloop
  endfacet
  facet normal -7.660445e-01 -6.427876e-01 -0.000000e+00
    outer loop
      vertex   3.680922e+00 5.473940e+00 2.700000e+01
      vertex   3.680922e+00 5.473940e+00 2.200000e+01
      vertex   5.000000e+00 3.901924e+00 2.200000e+01
    endloop
  endfacet
  facet normal -7.660445e-01 -6.427876e-01 0.000000e+00
    outer loop
      vertex   3.680922e+00 5.473940e+00 2.700000e+01
      vertex   5.000000e+00 3.901924e+00 2.200000e+01
      vertex   5.000000e+00 3.901924e+00 2.700000e+01
    endloop
  endfacet
  facet normal -1.736483e-01 -9.848077e-01 -0.000000e+00
    outer loop
      vertex   5.000000e+00 3.901924e+00 2.700000e+01
      vertex   5.000000e+00 3.901924e+00 2.200000e+01
      vertex   7.020944e+00 3.545577e+00 2.200000e+01
    endloop
  endfacet
  facet normal -1.736483e-01 -9.848077e-01 0.000000e+00
    outer loop
      vertex   5.000000e+00 3.901924e+00 2.700000e+01
      vertex   7.020944e+00 3.545577e+00 2.200000e+01
      vertex   7.020944e+00 3.545577e+00 2.700000e+01
    endloop
  endfacet
  facet normal 5.000001e-01 -8.660254e-01 0.000000e+00
    outer loop
      vertex   7.020944e+00 3.545577e+00 2.700000e+01
      vertex   7.020944e+00 3.545577e+00 2.200000e+01
      vertex   8.798133e+00 4.571637e+00 2.200000e+01
    endloop
  endfacet
  facet normal 5.000001e-01 -8.660254e-01 0.000000e+00
    outer loop
      vertex   7.020944e+00 3.545577e+00 2.700000e+01
      vertex   8.798133e+00 4.571637e+00 2.200000e+01
      vertex   8.798133e+00 4.571637e+00 2.700000e+01
    endloop
  endfacet
  facet normal 9.396926e-01 -3.420202e-01 0.000000e+00
    outer loop
      vertex   8.798133e+00 4.571637e+00 2.700000e+01
      vertex   8.798133e+00 4.571637e+00 2.200000e+01
      vertex   9.500000e+00 6.500000e+00 2.200000e+01
    endloop
  endfacet
  facet normal 0.000000e+00 0.000000e+00 1.000000e+00
    outer loop
      vertex   9.500000e+00 6.500000e+00 2.700000e+01
      vertex   8.798133e+00 8.428363e+00 2.700000e+01
      vertex   8.798133e+00 4.571637e+00 2.700000e+01
    endloop
  endfacet
  facet normal 0.000000e+00 -0.000000e+00 1.000000e+00
    outer loop
      vertex   8.798133e+00 4.571637e+00 2.700000e+01
      vertex   8.798133e+00 8.428363e+00 2.700000e+01
      vertex   7.020944e+00 3.545577e+00 2.700000e+01
    endloop
  endfacet
  facet normal 0.000000e+00 0.000000e+00 1.000000e+00
    outer loop
      vertex   7.020944e+00 3.545577e+00 2.700000e+01
      vertex   8.798133e+00 8.428363e+00 2.700000e+01
      vertex   7.020944e+00 9.454423e+00 2.700000e+01
    endloop
  endfacet
  facet normal 0.000000e+00 -0.000000e+00 1.000000e+00
    outer loop
      vertex   7.020944e+00 3.545577e+00 2.700000e+01
      vertex   7.020944e+00 9.454423e+00 2.700000e+01
      vertex   5.000000e+00 3.901924e+00 2.700000e+01
    endloop
  endfacet
  facet normal 0.000000e+00 0.000000e+00 1.000000e+00
    outer loop
      vertex   5.000000e+00 3.901924e+00 2.700000e+01
      vertex   7.020944e+00 9.454423e+00 2.700000e+01
      vertex   5.000000e+00 9.098076e+00 2.700000e+01
    endloop
  endfacet
  facet normal 0.000000e+00 -0.000000e+00 1.000000e+00
    outer loop
      vertex   5.000000e+00 3.901924e+00 2.700000e+01
      vertex   5.000000e+00 9.098076e+00 2.700000e+01
      vertex   3.680922e+00 5.473940e+00 2.700000e+01
    endloop
  endfacet
  facet normal 0.000000e+00 0.000000e+00 1.000000e+00
    outer loop
      vertex   3.680922e+00 5.473940e+00 2.700000e+01
      vertex   5.000000e+00 9.098076e+00 2.700000e+01
      vertex   3.680922e+00 7.526060e+00 2.700000e+01
    endloop
  endfacet
  facet normal 9.395859e-01 -3.419811e-01 1.507516e-02
    outer loop
      vertex   1.235093e+01 1.446418e+01 0.000000e+00
      vertex   1.209046e+01 1.401303e+01 6.000000e+00
      vertex   1.200000e+01 1.350000e+01 0.000000e+00
    endloop
  endfacet
  facet normal 9.998864e-01 0.000000e+00 -1.507508e-02
    outer loop
      vertex   1.200000e+01 1.350000e+01 0.000000e+00
      vertex   1.209046e+01 1.401303e+01 6.000000e+00
      vertex   1.209046e+01 1.298697e+01 6.000000e+00
    endloop
  endfacet
  facet normal 9.395859e-01 3.419811e-01 1.507516e-02
    outer loop
      vertex   1.200000e+01 1.350000e+01 0.000000e+00
      vertex   1.209046e+01 1.298697e+01 6.000000e+00
      vertex   1.235093e+01 1.253582e+01 0.000000e+00
    endloop
  endfacet
  facet normal 7.659575e-01 6.427144e-01 -1.507511e-02
    outer loop
      vertex   1.235093e+01 1.253582e+01 0.000000e+00
      vertex   1.209046e+01 1.298697e+01 6.000000e+00
      vertex   1.275000e+01 1.220096e+01 6.000000e+00
    endloop
  endfacet
  facet normal 4.999432e-01 8.659270e-01 1.507514e-02
    outer loop
      vertex   1.235093e+01 1.253582e+01 0.000000e+00
      vertex   1.275000e+01 1.220096e+01 6.000000e+00
      vertex   1.323953e+01 1.202279e+01 0.000000e+00
    endloop
  endfacet
  facet normal 1.736286e-01 9.846958e-01 -1.507515e-02
    outer loop
      vertex   1.323953e+01 1.202279e+01 0.000000e+00
      vertex   1.275000e+01 1.220096e+01 6.000000e+00
      vertex   1.376047e+01 1.202279e+01 6.000000e+00
    endloop
  endfacet
  facet normal -1.736288e-01 9.846958e-01 1.507516e-02
    outer loop
      vertex   1.323953e+01 1.202279e+01 0.000000e+00
      vertex   1.376047e+01 1.202279e+01 6.000000e+00
      vertex   1.425000e+01 1.220096e+01 0.000000e+00
    endloop
  endfacet
  facet normal -4.999432e-01 8.659270e-01 -1.507504e-02
    outer loop
      vertex   1.425000e+01 1.220096e+01 0.000000e+00
      vertex   1.376047e+01 1.202279e+01 6.000000e+00
      vertex   1.464907e+01 1.253582e+01 6.000000e+00
    endloop
  endfacet
  facet normal -7.659569e-01 6.427151e-01 1.507518e-02
    outer loop
      vertex   1.425000e+01 1.220096e+01 0.000000e+00
      vertex   1.464907e+01 1.253582e+01 6.000000e+00
      vertex   1.490954e+01 1.298697e+01 0.000000e+00
    endloop
  endfacet
  facet normal -9.395859e-01 3.419811e-01 -1.507516e-02
    outer loop
      vertex   1.490954e+01 1.298697e+01 0.000000e+00
      vertex   1.464907e+01 1.253582e+01 6.000000e+00
      vertex   1.500000e+01 1.350000e+01 6.000000e+00
    endloop
  endfacet
  facet normal -9.998864e-01 0.000000e+00 1.507508e-02
    outer loop
      vertex   1.490954e+01 1.298697e+01 0.000000e+00
      vertex   1.500000e+01 1.350000e+01 6.000000e+00
      vertex   1.490954e+01 1.401303e+01 0.000000e+00
    endloop
  endfacet
  facet normal -9.395859e-01 -3.419811e-01 -1.507516e-02
    outer loop
      vertex   1.490954e+01 1.401303e+01 0.000000e+00
      vertex   1.500000e+01 1.350000e+01 6.000000e+00
      vertex   1.464907e+01 1.446418e+01 6.000000e+00
    endloop
  endfacet
  facet normal -7.659569e-01 -6.427151e-01 1.507518e-02
    outer loop
      vertex   1.490954e+01 1.401303e+01 0.000000e+00
      vertex   1.464907e+01 1.446418e+01 6.000000e+00
      vertex   1.425000e+01 1.479904e+01 0.000000e+00
    endloop
  endfacet
  facet normal -4.999432e-01 -8.659270e-01 -1.507504e-02
    outer loop
      vertex   1.425000e+01 1.479904e+01 0.000000e+00
      vertex   1.464907e+01 1.446418e+01 6.000000e+00
      vertex   1.376047e+01 1.497721e+01 6.000000e+00
    endloop
  endfacet
  facet normal -1.736288e-01 -9.846958e-01 1.507516e-02
    outer loop
      vertex   1.425000e+01 1.479904e+01 0.000000e+00
      vertex   1.376047e+01 1.497721e+01 6.000000e+00
      vertex   1.323953e+01 1.497721e+01 0.000000e+00
    endloop
  endfacet
  facet normal 1.736286e-01 -9.846958e-01 -1.507515e-02
    outer loop
      vertex   1.323953e+01 1.497721e+01 0.000000e+00
      vertex   1.376047e+01 1.497721e+01 6.000000e+00
      vertex   1.275000e+01 1.479904e+01 6.000000e+00
    endloop
  endfacet
  facet normal 4.999432e-01 -8.659270e-01 1.507514e-02
    outer loop
      vertex   1.323953e+01 1.497721e+01 0.000000e+00
      vertex   1.275000e+01 1.479904e+01 6.000000e+00
      vertex   1.235093e+01 1.446418e+01 0.000000e+00
    endloop
  endfacet
  facet normal 7.659575e-01 -6.427144e-01 -1.507511e-02
    outer loop
      vertex   1.235093e+01 1.446418e+01 0.000000e+00
      vertex   1.275000e+01 1.479904e+01 6.000000e+00
      vertex   1.209046e+01 1.401303e+01 6.000000e+00
    endloop
  endfacet
  facet normal -9.396926e-01 -3.420203e-01 0.000000e+00
    outer loop
      vertex   1.733022e+01 1.671394e+01 2.200000e+01
      vertex   1.850000e+01 1.350000e+01 6.000000e+00
      vertex   1.850000e+01 1.350000e+01 2.200000e+01
    endloop
  endfacet
  facet normal -9.396926e-01 3.420202e-01 0.000000e+00
    outer loop
      vertex   1.850000e+01 1.350000e+01 2.200000e+01
      vertex   1.850000e+01 1.350000e+01 6.000000e+00
      vertex   1.733022e+01 1.028606e+01 6.000000e+00
    endloop
  endfacet
  facet normal -9.396926e-01 3.420202e-01 0.000000e+00
    outer loop
      vertex   1.850000e+01 1.350000e+01 2.200000e+01
      vertex   1.733022e+01 1.028606e+01 6.000000e+00
      vertex   1.733022e+01 1.028606e+01 2.200000e+01
    endloop
  endfacet
  facet normal -5.000000e-01 8.660254e-01 0.000000e+00
    outer loop
      vertex   1.733022e+01 1.028606e+01 2.200000e+01
      vertex   1.733022e+01 1.028606e+01 6.000000e+00
      vertex   1.436824e+01 8.575961e+00 6.000000e+00
    endloop
  endfacet
  facet normal -5.000000e-01 8.660254e-01 0.000000e+00
    outer loop
      vertex   1.733022e+01 1.028606e+01 2.200000e+01
      vertex   1.436824e+01 8.575961e+00 6.000000e+00
      vertex   1.436824e+01 8.575961e+00 2.200000e+01
    endloop
  endfacet
  facet normal 1.736483e-01 9.848077e-01 0.000000e+00
    outer loop
      vertex   1.436824e+01 8.575961e+00 2.200000e+01
      vertex   1.436824e+01 8.575961e+00 6.000000e+00
      vertex   1.100000e+01 9.169873e+00 6.000000e+00
    endloop
  endfacet
  facet normal 1.736483e-01 9.848077e-01 0.000000e+00
    outer loop
      vertex   1.436824e+01 8.575961e+00 2.200000e+01
      vertex   1.100000e+01 9.169873e+00 6.000000e+00
      vertex   1.100000e+01 9.169873e+00 2.200000e+01
    endloop
  endfacet
  facet normal 7.660444e-01 6.427877e-01 0.000000e+00
    outer loop
      vertex   1.100000e+01 9.169873e+00 2.200000e+01
      vertex   1.100000e+01 9.169873e+00 6.000000e+00
      vertex   8.801537e+00 1.178990e+01 6.000000e+00
    endloop
  endfacet
  facet normal 7.660444e-01 6.427877e-01 0.000000e+00
    outer loop
      vertex   1.100000e+01 9.169873e+00 2.200000e+01
      vertex   8.801537e+00 1.178990e+01 6.000000e+00
      vertex   8.801537e+00 1.178990e+01 2.200000e+01
    endloop
  endfacet
  facet normal 1.000000e+00 0.000000e+00 0.000000e+00
    outer loop
      vertex   8.801537e+00 1.178990e+01 2.200000e+01
      vertex   8.801537e+00 1.178990e+01 6.000000e+00
      vertex   8.801537e+00 1.521010e+01 6.000000e+00
    endloop
  endfacet
  facet normal 1.000000e+00 -0.000000e+00 0.000000e+00
    outer loop
      vertex   8.801537e+00 1.178990e+01 2.200000e+01
      vertex   8.801537e+00 1.521010e+01 6.000000e+00
      vertex   8.801537e+00 1.521010e+01 2.200000e+01
    endloop
  endfacet
  facet normal 7.660445e-01 -6.427875e-01 0.000000e+00
    outer loop
      vertex   8.801537e+00 1.521010e+01 2.200000e+01
      vertex   8.801537e+00 1.521010e+01 6.000000e+00
      vertex   1.100000e+01 1.783013e+01 6.000000e+00
    endloop
  endfacet
  facet normal 7.660445e-01 -6.427875e-01 0.000000e+00
    outer loop
      vertex   8.801537e+00 1.521010e+01 2.200000e+01
      vertex   1.100000e+01 1.783013e+01 6.000000e+00
      vertex   1.100000e+01 1.783013e+01 2.200000e+01
    endloop
  endfacet
  facet normal 1.736481e-01 -9.848078e-01 0.000000e+00
    outer loop
      vertex   1.100000e+01 1.783013e+01 2.200000e+01
      vertex   1.100000e+01 1.783013e+01 6.000000e+00
      vertex   1.436824e+01 1.842404e+01 6.000000e+00
    endloop
  endfacet
  facet normal 1.736481e-01 -9.848078e-01 0.000000e+00
    outer loop
      vertex   1.100000e+01 1.783013e+01 2.200000e+01
      vertex   1.436824e+01 1.842404e+01 6.000000e+00
      vertex   1.436824e+01 1.842404e+01 2.200000e+01
    endloop
  endfacet
  facet normal -5.000001e-01 -8.660253e-01 -0.000000e+00
    outer loop
      vertex   1.436824e+01 1.842404e+01 2.200000e+01
      vertex   1.436824e+01 1.842404e+01 6.000000e+00
      vertex   1.733022e+01 1.671394e+01 6.000000e+00
    endloop
  endfacet
  facet normal -5.000001e-01 -8.660253e-01 0.000000e+00
    outer loop
      vertex   1.436824e+01 1.842404e+01 2.200000e+01
      vertex   1.733022e+01 1.671394e+01 6.000000e+00
      vertex   1.733022e+01 1.671394e+01 2.200000e+01
    endloop
  endfacet
  facet normal -9.396926e-01 -3.420203e-01 -0.000000e+00
    outer loop
      vertex   1.733022e+01 1.671394e+01 2.200000e+01
      vertex   1.733022e+01 1.671394e+01 6.000000e+00
      vertex   1.850000e+01 1.350000e+01 6.000000e+00
    endloop
  endfacet
  facet normal -0.000000e+00 0.000000e+00 1.000000e+00
    outer loop
      vertex   1.464907e+01 1.253582e+01 6.000000e+00
      vertex   1.733022e+01 1.028606e+01 6.000000e+00
      vertex   1.500000e+01 1.350000e+01 6.000000e+00
    endloop
  endfacet
  facet normal -0.000000e+00 0.000000e+00 1.000000e+00
    outer loop
      vertex   1.500000e+01 1.350000e+01 6.000000e+00
      vertex   1.733022e+01 1.028606e+01 6.000000e+00
      vertex   1.850000e+01 1.350000e+01 6.000000e+00
    endloop
  endfacet
  facet normal 0.000000e+00 0.000000e+00 1.000000e+00
    outer loop
      vertex   1.500000e+01 1.350000e+01 6.000000e+00
      vertex   1.850000e+01 1.350000e+01 6.000000e+00
      vertex   1.733022e+01 1.671394e+01 6.000000e+00
    endloop
  endfacet
  facet normal 0.000000e+00 0.000000e+00 1.000000e+00
    outer loop
      vertex   1.733022e+01 1.028606e+01 6.000000e+00
      vertex   1.464907e+01 1.253582e+01 6.000000e+00
      vertex   1.436824e+01 8.575961e+00 6.000000e+00
    endloop
  endfacet
  facet normal 0.000000e+00 -0.000000e+00 1.000000e+00
    outer loop
      vertex   1.436824e+01 8.575961e+00 6.000000e+00
      vertex   1.464907e+01 1.253582e+01 6.000000e+00
      vertex   1.376047e+01 1.202279e+01 6.000000e+00
    endloop
  endfacet
  facet normal 0.000000e+00 0.000000e+00 1.000000e+00
    outer loop
      vertex   1.436824e+01 8.575961e+00 6.000000e+00
      vertex   1.376047e+01 1.202279e+01 6.000000e+00
      vertex   1.275000e+01 1.220096e+01 6.000000e+00
    endloop
  endfacet
  facet normal 0.000000e+00 0.000000e+00 1.000000e+00
    outer loop
      vertex   1.436824e+01 8.575961e+00 6.000000e+00
      vertex   1.275000e+01 1.220096e+01 6.000000e+00
      vertex   1.100000e+01 9.169873e+00 6.000000e+00
    endloop
  endfacet
  facet normal 0.000000e+00 0.000000e+00 1.000000e+00
    outer loop
      vertex   1.100000e+01 9.169873e+00 6.000000e+00
      vertex   1.275000e+01 1.220096e+01 6.000000e+00
      vertex   1.209046e+01 1.298697e+01 6.000000e+00
    endloop
  endfacet
  facet normal 0.000000e+00 -0.000000e+00 1.000000e+00
    outer loop
      vertex   1.100000e+01 9.169873e+00 6.000000e+00
      vertex   1.209046e+01 1.298697e+01 6.000000e+00
      vertex   8.801537e+00 1.178990e+01 6.000000e+00
    endloop
  endfacet
  facet normal 0.000000e+00 0.000000e+00 1.000000e+00
    outer loop
      vertex   8.801537e+00 1.178990e+01 6.000000e+00
      vertex   1.209046e+01 1.298697e+01 6.000000e+00
      vertex   1.209046e+01 1.401303e+01 6.000000e+00
    endloop
  endfacet
  facet normal 0.000000e+00 0.000000e+00 1.000000e+00
    outer loop
      vertex   8.801537e+00 1.178990e+01 6.000000e+00
      vertex   1.209046e+01 1.401303e+01 6.000000e+00
      vertex   8.801537e+00 1.521010e+01 6.000000e+00
    endloop
  endfacet
  facet normal -0.000000e+00 0.000000e+00 1.000000e+00
    outer loop
      vertex   8.801537e+00 1.521010e+01 6.000000e+00
      vertex   1.209046e+01 1.401303e+01 6.000000e+00
      vertex   1.100000e+01 1.783013e+01 6.000000e+00
    endloop
  endfacet
  facet normal 0.000000e+00 0.000000e+00 1.000000e+00
    outer loop
      vertex   1.100000e+01 1.783013e+01 6.000000e+00
      vertex   1.209046e+01 1.401303e+01 6.000000e+00
      vertex   1.275000e+01 1.479904e+01 6.000000e+00
    endloop
  endfacet
  facet normal -0.000000e+00 0.000000e+00 1.000000e+00
    outer loop
      vertex   1.100000e+01 1.783013e+01 6.000000e+00
      vertex   1.275000e+01 1.479904e+01 6.000000e+00
      vertex   1.436824e+01 1.842404e+01 6.000000e+00
    endloop
  endfacet
  facet normal 0.000000e+00 0.000000e+00 1.000000e+00
    outer loop
      vertex   1.436824e+01 1.842404e+01 6.000000e+00
      vertex   1.275000e+01 1.479904e+01 6.000000e+00
      vertex   1.376047e+01 1.497721e+01 6.000000e+00
    endloop
  endfacet
  facet normal 0.000000e+00 0.000000e+00 1.000000e+00
    outer loop
      vertex   1.436824e+01 1.842404e+01 6.000000e+00
      vertex   1.376047e+01 1.497721e+01 6.000000e+00
      vertex   1.464907e+01 1.446418e+01 6.000000e+00
    endloop
  endfacet
  facet normal 0.000000e+00 0.000000e+00 1.000000e+00
    outer loop
      vertex   1.436824e+01 1.842404e+01 6.000000e+00
      vertex   1.464907e+01 1.446418e+01 6.000000e+00
      vertex   1.733022e+01 1.671394e+01 6.000000e+00
    endloop
  endfacet
  facet normal 0.000000e+00 0.000000e+00 1.000000e+00
    outer loop
      vertex   1.733022e+01 1.671394e+01 6.000000e+00
      vertex   1.464907e+01 1.446418e+01 6.000000e+00
      vertex   1.500000e+01 1.350000e+01 6.000000e+00
    endloop
  endfacet
  facet normal 9.659258e-01 2.588190e-01 -0.000000e+00
    outer loop
      vertex   2.000000e+01 1.500000e+01 0.000000e+00
      vertex   1.933013e+01 1.750000e+01 0.000000e+00
      vertex   2.000000e+01 1.500000e+01 2.200000e+01
    endloop
  endfacet
  facet normal 9.659258e-01 2.588190e-01 0.000000e+00
    outer loop
      vertex   2.000000e+01 1.500000e+01 2.200000e+01
      vertex   1.933013e+01 1.750000e+01 0.000000e+00
      vertex   1.933013e+01 1.750000e+01 2.200000e+01
    endloop
  endfacet
  facet normal 7.071068e-01 7.071068e-01 0.000000e+00
    outer loop
      vertex   1.933013e+01 1.750000e+01 2.200000e+01
      vertex   1.933013e+01 1.750000e+01 0.000000e+00
      vertex   1.750000e+01 1.933013e+01 2.200000e+01
    endloop
  endfacet
  facet normal 7.071068e-01 7.071068e-01 0.000000e+00
    outer loop
      vertex   1.750000e+01 1.933013e+01 2.200000e+01
      vertex   1.933013e+01 1.750000e+01 0.000000e+00
      vertex   1.750000e+01 1.933013e+01 0.000000e+00
    endloop
  endfacet
  facet normal 2.588190e-01 9.659258e-01 0.000000e+00
    outer loop
      vertex   1.750000e+01 1.933013e+01 2.200000e+01
      vertex   1.750000e+01 1.933013e+01 0.000000e+00
      vertex   1.500000e+01 2.000000e+01 2.200000e+01
    endloop
  endfacet
  facet normal 2.588190e-01 9.659258e-01 0.000000e+00
    outer loop
      vertex   1.500000e+01 2.000000e+01 2.200000e+01
      vertex   1.750000e+01 1.933013e+01 0.000000e+00
      vertex   1.500000e+01 2.000000e+01 0.000000e+00
    endloop
  endfacet
  facet normal 1.000000e+00 0.000000e+00 0.000000e+00
    outer loop
      vertex   2.000000e+01 0.000000e+00 0.000000e+00
      vertex   2.000000e+01 1.500000e+01 0.000000e+00
      vertex   2.000000e+01 0.000000e+00 2.200000e+01
    endloop
  endfacet
  facet normal 1.000000e+00 -0.000000e+00 0.000000e+00
    outer loop
      vertex   2.000000e+01 0.000000e+00 2.200000e+01
      vertex   2.000000e+01 1.500000e+01 0.000000e+00
      vertex   2.000000e+01 1.500000e+01 2.200000e+01
    endloop
  endfacet
  facet normal 0.000000e+00 -1.000000e+00 0.000000e+00
    outer loop
      vertex   5.000000e+00 0.000000e+00 0.000000e+00
      vertex   2.000000e+01 0.000000e+00 0.000000e+00
      vertex   5.000000e+00 0.000000e+00 2.200000e+01
    endloop
  endfacet
  facet normal 0.000000e+00 -1.000000e+00 0.000000e+00
    outer loop
      vertex   5.000000e+00 0.000000e+00 2.200000e+01
      vertex   2.000000e+01 0.000000e+00 0.000000e+00
      vertex   2.000000e+01 0.000000e+00 2.200000e+01
    endloop
  endfacet
  facet normal -9.659258e-01 -2.588190e-01 0.000000e+00
    outer loop
      vertex   0.000000e+00 5.000000e+00 0.000000e+00
      vertex   6.698730e-01 2.500000e+00 0.000000e+00
      vertex   0.000000e+00 5.000000e+00 2.200000e+01
    endloop
  endfacet
  facet normal -9.659258e-01 -2.588190e-01 0.000000e+00
    outer loop
      vertex   0.000000e+00 5.000000e+00 2.200000e+01
      vertex   6.698730e-01 2.500000e+00 0.000000e+00
      vertex   6.698730e-01 2.500000e+00 2.200000e+01
    endloop
  endfacet
  facet normal -7.071068e-01 -7.071068e-01 -0.000000e+00
    outer loop
      vertex   6.698730e-01 2.500000e+00 2.200000e+01
      vertex   6.698730e-01 2.500000e+00 0.000000e+00
      vertex   2.500000e+00 6.698730e-01 2.200000e+01
    endloop
  endfacet
  facet normal -7.071068e-01 -7.071068e-01 -0.000000e+00
    outer loop
      vertex   2.500000e+00 6.698730e-01 2.200000e+01
      vertex   6.698730e-01 2.500000e+00 0.000000e+00
      vertex   2.500000e+00 6.698730e-01 0.000000e+00
    endloop
  endfacet
  facet normal -2.588190e-01 -9.659258e-01 -0.000000e+00
    outer loop
      vertex   2.500000e+00 6.698730e-01 2.200000e+01
      vertex   2.500000e+00 6.698730e-01 0.000000e+00
      vertex   5.000000e+00 0.000000e+00 2.200000e+01
    endloop
  endfacet
  facet normal -2.588190e-01 -9.659258e-01 -0.000000e+00
    outer loop
      vertex   5.000000e+00 0.000000e+00 2.200000e+01
      vertex   2.500000e+00 6.698730e-01 0.000000e+00
      vertex   5.000000e+00 0.000000e+00 0.000000e+00
    endloop
  endfacet
  facet normal -1.000000e+00 0.000000e+00 0.000000e+00
    outer loop
      vertex   0.000000e+00 2.000000e+01 0.000000e+00
      vertex   0.000000e+00 5.000000e+00 0.000000e+00
      vertex   0.000000e+00 2.000000e+01 2.200000e+01
    endloop
  endfacet
  facet normal -1.000000e+00 -0.000000e+00 0.000000e+00
    outer loop
      vertex   0.000000e+00 2.000000e+01 2.200000e+01
      vertex   0.000000e+00 5.000000e+00 0.000000e+00
      vertex   0.000000e+00 5.000000e+00 2.200000e+01
    endloop
  endfacet
  facet normal 0.000000e+00 1.000000e+00 -0.000000e+00
    outer loop
      vertex   1.500000e+01 2.000000e+01 0.000000e+00
      vertex   0.000000e+00 2.000000e+01 0.000000e+00
      vertex   1.500000e+01 2.000000e+01 2.200000e+01
    endloop
  endfacet
  facet normal 0.000000e+00 1.000000e+00 0.000000e+00
    outer loop
      vertex   1.500000e+01 2.000000e+01 2.200000e+01
      vertex   0.000000e+00 2.000000e+01 0.000000e+00
      vertex   0.000000e+00 2.000000e+01 2.200000e+01
    endloop
  endfacet
  facet normal 0.000000e+00 0.000000e+00 1.000000e+00
    outer loop
      vertex   8.798133e+00 4.571637e+00 2.200000e+01
      vertex   1.436824e+01 8.575961e+00 2.200000e+01
      vertex   9.500000e+00 6.500000e+00 2.200000e+01
    endloop
  endfacet
  facet normal 0.000000e+00 0.000000e+00 1.000000e+00
    outer loop
      vertex   9.500000e+00 6.500000e+00 2.200000e+01
      vertex   1.436824e+01 8.575961e+00 2.200000e+01
      vertex   1.100000e+01 9.169873e+00 2.200000e+01
    endloop
  endfacet
  facet normal 0.000000e+00 -0.000000e+00 1.000000e+00
    outer loop
      vertex   9.500000e+00 6.500000e+00 2.200000e+01
      vertex   1.100000e+01 9.169873e+00 2.200000e+01
      vertex   8.798133e+00 8.428363e+00 2.200000e+01
    endloop
  endfacet
  facet normal 0.000000e+00 0.000000e+00 1.000000e+00
    outer loop
      vertex   8.798133e+00 8.428363e+00 2.200000e+01
      vertex   1.100000e+01 9.169873e+00 2.200000e+01
      vertex   8.801537e+00 1.178990e+01 2.200000e+01
    endloop
  endfacet
  facet normal 0.000000e+00 -0.000000e+00 1.000000e+00
    outer loop
      vertex   8.798133e+00 8.428363e+00 2.200000e+01
      vertex   8.801537e+00 1.178990e+01 2.200000e+01
      vertex   7.020944e+00 9.454423e+00 2.200000e+01
    endloop
  endfacet
  facet normal 0.000000e+00 -0.000000e+00 1.000000e+00
    outer loop
      vertex   7.020944e+00 9.454423e+00 2.200000e+01
      vertex   8.801537e+00 1.178990e+01 2.200000e+01
      vertex   5.000000e+00 9.098076e+00 2.200000e+01
    endloop
  endfacet
  facet normal 0.000000e+00 0.000000e+00 1.000000e+00
    outer loop
      vertex   5.000000e+00 9.098076e+00 2.200000e+01
      vertex   8.801537e+00 1.178990e+01 2.200000e+01
      vertex   8.801537e+00 1.521010e+01 2.200000e+01
    endloop
  endfacet
  facet normal 0.000000e+00 -0.000000e+00 1.000000e+00
    outer loop
      vertex   5.000000e+00 9.098076e+00 2.200000e+01
      vertex   8.801537e+00 1.521010e+01 2.200000e+01
      vertex   0.000000e+00 2.000000e+01 2.200000e+01
    endloop
  endfacet
  facet normal 0.000000e+00 0.000000e+00 1.000000e+00
    outer loop
      vertex   0.000000e+00 2.000000e+01 2.200000e+01
      vertex   8.801537e+00 1.521010e+01 2.200000e+01
      vertex   1.100000e+01 1.783013e+01 2.200000e+01
    endloop
  endfacet
  facet normal -0.000000e+00 0.000000e+00 1.000000e+00
    outer loop
      vertex   0.000000e+00 2.000000e+01 2.200000e+01
      vertex   1.100000e+01 1.783013e+01 2.200000e+01
      vertex   1.500000e+01 2.000000e+01 2.200000e+01
    endloop
  endfacet
  facet normal 0.000000e+00 0.000000e+00 1.000000e+00
    outer loop
      vertex   1.500000e+01 2.000000e+01 2.200000e+01
      vertex   1.100000e+01 1.783013e+01 2.200000e+01
      vertex   1.436824e+01 1.842404e+01 2.200000e+01
    endloop
  endfacet
  facet normal 0.000000e+00 0.000000e+00 1.000000e+00
    outer loop
      vertex   1.500000e+01 2.000000e+01 2.200000e+01
      vertex   1.436824e+01 1.842404e+01 2.200000e+01
      vertex   1.750000e+01 1.933013e+01 2.200000e+01
    endloop
  endfacet
  facet normal 0.000000e+00 0.000000e+00 1.000000e+00
    outer loop
      vertex   1.750000e+01 1.933013e+01 2.200000e+01
      vertex   1.436824e+01 1.842404e+01 2.200000e+01
      vertex   1.733022e+01 1.671394e+01 2.200000e+01
    endloop
  endfacet
  facet normal 0.000000e+00 0.000000e+00 1.000000e+00
    outer loop
      vertex   1.750000e+01 1.933013e+01 2.200000e+01
      vertex   1.733022e+01 1.671394e+01 2.200000e+01
      vertex   1.933013e+01 1.750000e+01 2.200000e+01
    endloop
  endfacet
  facet normal 0.000000e+00 0.000000e+00 1.000000e+00
    outer loop
      vertex   1.933013e+01 1.750000e+01 2.200000e+01
      vertex   1.733022e+01 1.671394e+01 2.200000e+01
      vertex   2.000000e+01 1.500000e+01 2.200000e+01
    endloop
  endfacet
  facet normal 0.000000e+00 0.000000e+00 1.000000e+00
    outer loop
      vertex   2.000000e+01 1.500000e+01 2.200000e+01
      vertex   1.733022e+01 1.671394e+01 2.200000e+01
      vertex   1.850000e+01 1.350000e+01 2.200000e+01
    endloop
  endfacet
  facet normal 0.000000e+00 0.000000e+00 1.000000e+00
    outer loop
      vertex   2.000000e+01 1.500000e+01 2.200000e+01
      vertex   1.850000e+01 1.350000e+01 2.200000e+01
      vertex   1.733022e+01 1.028606e+01 2.200000e+01
    endloop
  endfacet
  facet normal -0.000000e+00 0.000000e+00 1.000000e+00
    outer loop
      vertex   7.020944e+00 3.545577e+00 2.200000e+01
      vertex   5.000000e+00 0.000000e+00 2.200000e+01
      vertex   8.798133e+00 4.571637e+00 2.200000e+01
    endloop
  endfacet
  facet normal 0.000000e+00 0.000000e+00 1.000000e+00
    outer loop
      vertex   8.798133e+00 4.571637e+00 2.200000e+01
      vertex   5.000000e+00 0.000000e+00 2.200000e+01
      vertex   2.000000e+01 0.000000e+00 2.200000e+01
    endloop
  endfacet
  facet normal -0.000000e+00 0.000000e+00 1.000000e+00
    outer loop
      vertex   8.798133e+00 4.571637e+00 2.200000e+01
      vertex   2.000000e+01 0.000000e+00 2.200000e+01
      vertex   1.436824e+01 8.575961e+00 2.200000e+01
    endloop
  endfacet
  facet normal -0.000000e+00 0.000000e+00 1.000000e+00
    outer loop
      vertex   1.436824e+01 8.575961e+00 2.200000e+01
      vertex   2.000000e+01 0.000000e+00 2.200000e+01
      vertex   1.733022e+01 1.028606e+01 2.200000e+01
    endloop
  endfacet
  facet normal -0.000000e+00 0.000000e+00 1.000000e+00
    outer loop
      vertex   1.733022e+01 1.028606e+01 2.200000e+01
      vertex   2.000000e+01 0.000000e+00 2.200000e+01
      vertex   2.000000e+01 1.500000e+01 2.200000e+01
    endloop
  endfacet
  facet normal 0.000000e+00 0.000000e+00 1.000000e+00
    outer loop
      vertex   7.020944e+00 3.545577e+00 2.200000e+01
      vertex   5.000000e+00 3.901924e+00 2.200000e+01
      vertex   5.000000e+00 0.000000e+00 2.200000e+01
    endloop
  endfacet
  facet normal 0.000000e+00 -0.000000e+00 1.000000e+00
    outer loop
      vertex   5.000000e+00 0.000000e+00 2.200000e+01
      vertex   5.000000e+00 3.901924e+00 2.200000e+01
      vertex   2.500000e+00 6.698730e-01 2.200000e+01
    endloop
  endfacet
  facet normal 0.000000e+00 -0.000000e+00 1.000000e+00
    outer loop
      vertex   2.500000e+00 6.698730e-01 2.200000e+01
      vertex   5.000000e+00 3.901924e+00 2.200000e+01
      vertex   6.698730e-01 2.500000e+00 2.200000e+01
    endloop
  endfacet
  facet normal 0.000000e+00 0.000000e+00 1.000000e+00
    outer loop
      vertex   6.698730e-01 2.500000e+00 2.200000e+01
      vertex   5.000000e+00 3.901924e+00 2.200000e+01
      vertex   3.680922e+00 5.473940e+00 2.200000e+01
    endloop
  endfacet
  facet normal 0.000000e+00 -0.000000e+00 1.000000e+00
    outer loop
      vertex   6.698730e-01 2.500000e+00 2.200000e+01
      vertex   3.680922e+00 5.473940e+00 2.200000e+01
      vertex   0.000000e+00 5.000000e+00 2.200000e+01
    endloop
  endfacet
  facet normal 0.000000e+00 0.000000e+00 1.000000e+00
    outer loop
      vertex   0.000000e+00 5.000000e+00 2.200000e+01
      vertex   3.680922e+00 5.473940e+00 2.200000e+01
      vertex   3.680922e+00 7.526060e+00 2.200000e+01
    endloop
  endfacet
  facet normal 0.000000e+00 0.000000e+00 1.000000e+00
    outer loop
      vertex   0.000000e+00 5.000000e+00 2.200000e+01
      vertex   3.680922e+00 7.526060e+00 2.200000e+01
      vertex   0.000000e+00 2.000000e+01 2.200000e+01
    endloop
  endfacet
  facet normal 0.000000e+00 0.000000e+00 1.000000e+00
    outer loop
      vertex   0.000000e+00 2.000000e+01 2.200000e+01
      vertex   3.680922e+00 7.526060e+00 2.200000e+01
      vertex   5.000000e+00 9.098076e+00 2.200000e+01
    endloop
  endfacet
  facet normal -0.000000e+00 0.000000e+00 -1.000000e+00
    outer loop
      vertex   1.235093e+01 1.253582e+01 0.000000e+00
      vertex   0.000000e+00 5.000000e+00 0.000000e+00
      vertex   1.200000e+01 1.350000e+01 0.000000e+00
    endloop
  endfacet
  facet normal -0.000000e+00 0.000000e+00 -1.000000e+00
    outer loop
      vertex   1.200000e+01 1.350000e+01 0.000000e+00
      vertex   0.000000e+00 5.000000e+00 0.000000e+00
      vertex   0.000000e+00 2.000000e+01 0.000000e+00
    endloop
  endfacet
  facet normal 0.000000e+00 0.000000e+00 -1.000000e+00
    outer loop
      vertex   1.200000e+01 1.350000e+01 0.000000e+00
      vertex   0.000000e+00 2.000000e+01 0.000000e+00
      vertex   1.235093e+01 1.446418e+01 0.000000e+00
    endloop
  endfacet
  facet normal 0.000000e+00 0.000000e+00 -1.000000e+00
    outer loop
      vertex   1.235093e+01 1.446418e+01 0.000000e+00
      vertex   0.000000e+00 2.000000e+01 0.000000e+00
      vertex   1.500000e+01 2.000000e+01 0.000000e+00
    endloop
  endfacet
  facet normal 0.000000e+00 0.000000e+00 -1.000000e+00
    outer loop
      vertex   1.235093e+01 1.446418e+01 0.000000e+00
      vertex   1.500000e+01 2.000000e+01 0.000000e+00
      vertex   1.323953e+01 1.497721e+01 0.000000e+00
    endloop
  endfacet
  facet normal 0.000000e+00 0.000000e+00 -1.000000e+00
    outer loop
      vertex   1.323953e+01 1.497721e+01 0.000000e+00
      vertex   1.500000e+01 2.000000e+01 0.000000e+00
      vertex   1.425000e+01 1.479904e+01 0.000000e+00
    endloop
  endfacet
  facet normal 0.000000e+00 0.000000e+00 -1.000000e+00
    outer loop
      vertex   1.425000e+01 1.479904e+01 0.000000e+00
      vertex   1.500000e+01 2.000000e+01 0.000000e+00
      vertex   1.750000e+01 1.933013e+01 0.000000e+00
    endloop
  endfacet
  facet normal 0.000000e+00 0.000000e+00 -1.000000e+00
    outer loop
      vertex   1.425000e+01 1.479904e+01 0.000000e+00
      vertex   1.750000e+01 1.933013e+01 0.000000e+00
      vertex   1.933013e+01 1.750000e+01 0.000000e+00
    endloop
  endfacet
  facet normal 0.000000e+00 0.000000e+00 -1.000000e+00
    outer loop
      vertex   0.000000e+00 5.000000e+00 0.000000e+00
      vertex   1.235093e+01 1.253582e+01 0.000000e+00
      vertex   5.000000e+00 0.000000e+00 0.000000e+00
    endloop
  endfacet
  facet normal 0.000000e+00 0.000000e+00 -1.000000e+00
    outer loop
      vertex   5.000000e+00 0.000000e+00 0.000000e+00
      vertex   1.235093e+01 1.253582e+01 0.000000e+00
      vertex   1.323953e+01 1.202279e+01 0.000000e+00
    endloop
  endfacet
  facet normal 0.000000e+00 0.000000e+00 -1.000000e+00
    outer loop
      vertex   5.000000e+00 0.000000e+00 0.000000e+00
      vertex   1.323953e+01 1.202279e+01 0.000000e+00
      vertex   2.000000e+01 0.000000e+00 0.000000e+00
    endloop
  endfacet
  facet normal 0.000000e+00 0.000000e+00 -1.000000e+00
    outer loop
      vertex   2.000000e+01 0.000000e+00 0.000000e+00
      vertex   1.323953e+01 1.202279e+01 0.000000e+00
      vertex   1.425000e+01 1.220096e+01 0.000000e+00
    endloop
  endfacet
  facet normal 0.000000e+00 0.000000e+00 -1.000000e+00
    outer loop
      vertex   2.000000e+01 0.000000e+00 0.000000e+00
      vertex   1.425000e+01 1.220096e+01 0.000000e+00
      vertex   2.000000e+01 1.500000e+01 0.000000e+00
    endloop
  endfacet
  facet normal 0.000000e+00 0.000000e+00 -1.000000e+00
    outer loop
      vertex   2.000000e+01 1.500000e+01 0.000000e+00
      vertex   1.425000e+01 1.220096e+01 0.000000e+00
      vertex   1.490954e+01 1.298697e+01 0.000000e+00
    endloop
  endfacet
  facet normal 0.000000e+00 0.000000e+00 -1.000000e+00
    outer loop
      vertex   2.000000e+01 1.500000e+01 0.000000e+00
      vertex   1.490954e+01 1.298697e+01 0.000000e+00
      vertex   1.490954e+01 1.401303e+01 0.000000e+00
    endloop
  endfacet
  facet normal -0.000000e+00 0.000000e+00 -1.000000e+00
    outer loop
      vertex   2.000000e+01 1.500000e+01 0.000000e+00
      vertex   1.490954e+01 1.401303e+01 0.000000e+00
      vertex   1.933013e+01 1.750000e+01 0.000000e+00
    endloop
  endfacet
  facet normal 0.000000e+00 0.000000e+00 -1.000000e+00
    outer loop
      vertex   1.933013e+01 1.750000e+01 0.000000e+00
      vertex   1.490954e+01 1.401303e+01 0.000000e+00
      vertex   1.425000e+01 1.479904e+01 0.000000e+00
    endloop
  endfacet
  facet normal 0.000000e+00 0.000000e+00 -1.000000e+00
    outer loop
      vertex   5.000000e+00 0.000000e+00 0.000000e+00
      vertex   2.500000e+00 6.698730e-01 0.000000e+00
      vertex   0.000000e+00 5.000000e+00 0.000000e+00
    endloop
  endfacet
  facet normal 0.000000e+00 0.000000e+00 -1.000000e+00
    outer loop
      vertex   0.000000e+00 5.000000e+00 0.000000e+00
      vertex   2.500000e+00 6.698730e-01 0.000000e+00
      vertex   6.698730e-01 2.500000e+00 0.000000e+00
    endloop
  endfacet
endsolid
