solid ASCII
  facet normal -9.396927e-01 -3.420198e-01 0.000000e+00
    outer loop
      vertex   9.640782e+00 9.135429e+00 2.200000e+01
      vertex   1.060000e+01 6.500000e+00 6.000000e+00
      vertex   1.060000e+01 6.500000e+00 2.200000e+01
    endloop
  endfacet
  facet normal -9.396927e-01 3.420199e-01 0.000000e+00
    outer loop
      vertex   1.060000e+01 6.500000e+00 2.200000e+01
      vertex   1.060000e+01 6.500000e+00 6.000000e+00
      vertex   9.640782e+00 3.864571e+00 6.000000e+00
    endloop
  endfacet
  facet normal -9.396927e-01 3.420199e-01 0.000000e+00
    outer loop
      vertex   1.060000e+01 6.500000e+00 2.200000e+01
      vertex   9.640782e+00 3.864571e+00 6.000000e+00
      vertex   9.640782e+00 3.864571e+00 2.200000e+01
    endloop
  endfacet
  facet normal -5.000000e-01 8.660254e-01 0.000000e+00
    outer loop
      vertex   9.640782e+00 3.864571e+00 2.200000e+01
      vertex   9.640782e+00 3.864571e+00 6.000000e+00
      vertex   7.211958e+00 2.462288e+00 6.000000e+00
    endloop
  endfacet
  facet normal -5.000000e-01 8.660254e-01 0.000000e+00
    outer loop
      vertex   9.640782e+00 3.864571e+00 2.200000e+01
      vertex   7.211958e+00 2.462288e+00 6.000000e+00
      vertex   7.211958e+00 2.462288e+00 2.200000e+01
    endloop
  endfacet
  facet normal 1.736482e-01 9.848077e-01 0.000000e+00
    outer loop
      vertex   7.211958e+00 2.462288e+00 2.200000e+01
      vertex   7.211958e+00 2.462288e+00 6.000000e+00
      vertex   4.450000e+00 2.949296e+00 6.000000e+00
    endloop
  endfacet
  facet normal 1.736482e-01 9.848077e-01 0.000000e+00
    outer loop
      vertex   7.211958e+00 2.462288e+00 2.200000e+01
      vertex   4.450000e+00 2.949296e+00 6.000000e+00
      vertex   4.450000e+00 2.949296e+00 2.200000e+01
    endloop
  endfacet
  facet normal 7.660445e-01 6.427876e-01 0.000000e+00
    outer loop
      vertex   4.450000e+00 2.949296e+00 2.200000e+01
      vertex   4.450000e+00 2.949296e+00 6.000000e+00
      vertex   2.647260e+00 5.097718e+00 6.000000e+00
    endloop
  endfacet
  facet normal 7.660445e-01 6.427876e-01 0.000000e+00
    outer loop
      vertex   4.450000e+00 2.949296e+00 2.200000e+01
      vertex   2.647260e+00 5.097718e+00 6.000000e+00
      vertex   2.647260e+00 5.097718e+00 2.200000e+01
    endloop
  endfacet
  facet normal 1.000000e+00 0.000000e+00 0.000000e+00
    outer loop
      vertex   2.647260e+00 5.097718e+00 2.200000e+01
      vertex   2.647260e+00 5.097718e+00 6.000000e+00
      vertex   2.647260e+00 7.902282e+00 6.000000e+00
    endloop
  endfacet
  facet normal 1.000000e+00 -0.000000e+00 0.000000e+00
    outer loop
      vertex   2.647260e+00 5.097718e+00 2.200000e+01
      vertex   2.647260e+00 7.902282e+00 6.000000e+00
      vertex   2.647260e+00 7.902282e+00 2.200000e+01
    endloop
  endfacet
  facet normal 7.660445e-01 -6.427875e-01 0.000000e+00
    outer loop
      vertex   2.647260e+00 7.902282e+00 2.200000e+01
      vertex   2.647260e+00 7.902282e+00 6.000000e+00
      vertex   4.450000e+00 1.005070e+01 6.000000e+00
    endloop
  endfacet
  facet normal 7.660445e-01 -6.427875e-01 0.000000e+00
    outer loop
      vertex   2.647260e+00 7.902282e+00 2.200000e+01
      vertex   4.450000e+00 1.005070e+01 6.000000e+00
      vertex   4.450000e+00 1.005070e+01 2.200000e+01
    endloop
  endfacet
  facet normal 1.736479e-01 -9.848078e-01 0.000000e+00
    outer loop
      vertex   4.450000e+00 1.005070e+01 2.200000e+01
      vertex   4.450000e+00 1.005070e+01 6.000000e+00
      vertex   7.211958e+00 1.053771e+01 6.000000e+00
    endloop
  endfacet
  facet normal 1.736479e-01 -9.848078e-01 0.000000e+00
    outer loop
      vertex   4.450000e+00 1.005070e+01 2.200000e+01
      vertex   7.211958e+00 1.053771e+01 6.000000e+00
      vertex   7.211958e+00 1.053771e+01 2.200000e+01
    endloop
  endfacet
  facet normal -4.999998e-01 -8.660255e-01 -0.000000e+00
    outer loop
      vertex   7.211958e+00 1.053771e+01 2.200000e+01
      vertex   7.211958e+00 1.053771e+01 6.000000e+00
      vertex   9.640782e+00 9.135429e+00 6.000000e+00
    endloop
  endfacet
  facet normal -4.999998e-01 -8.660255e-01 0.000000e+00
    outer loop
      vertex   7.211958e+00 1.053771e+01 2.200000e+01
      vertex   9.640782e+00 9.135429e+00 6.000000e+00
      vertex   9.640782e+00 9.135429e+00 2.200000e+01
    endloop
  endfacet
  facet normal -9.396927e-01 -3.420198e-01 -0.000000e+00
    outer loop
      vertex   9.640782e+00 9.135429e+00 2.200000e+01
      vertex   9.640782e+00 9.135429e+00 6.000000e+00
      vertex   1.060000e+01 6.500000e+00 6.000000e+00
    endloop
  endfacet
  facet normal 0.000000e+00 0.000000e+00 1.000000e+00
    outer loop
      vertex   1.060000e+01 6.500000e+00 6.000000e+00
      vertex   9.640782e+00 9.135429e+00 6.000000e+00
      vertex   9.640782e+00 3.864571e+00 6.000000e+00
    endloop
  endfacet
  facet normal 0.000000e+00 -0.000000e+00 1.000000e+00
    outer loop
      vertex   9.640782e+00 3.864571e+00 6.000000e+00
      vertex   9.640782e+00 9.135429e+00 6.000000e+00
      vertex   7.211958e+00 2.462288e+00 6.000000e+00
    endloop
  endfacet
  facet normal 0.000000e+00 0.000000e+00 1.000000e+00
    outer loop
      vertex   7.211958e+00 2.462288e+00 6.000000e+00
      vertex   9.640782e+00 9.135429e+00 6.000000e+00
      vertex   7.211958e+00 1.053771e+01 6.000000e+00
    endloop
  endfacet
  facet normal 0.000000e+00 -0.000000e+00 1.000000e+00
    outer loop
      vertex   7.211958e+00 2.462288e+00 6.000000e+00
      vertex   7.211958e+00 1.053771e+01 6.000000e+00
      vertex   4.450000e+00 2.949296e+00 6.000000e+00
    endloop
  endfacet
  facet normal 0.000000e+00 0.000000e+00 1.000000e+00
    outer loop
      vertex   4.450000e+00 2.949296e+00 6.000000e+00
      vertex   7.211958e+00 1.053771e+01 6.000000e+00
      vertex   4.450000e+00 1.005070e+01 6.000000e+00
    endloop
  endfacet
  facet normal 0.000000e+00 -0.000000e+00 1.000000e+00
    outer loop
      vertex   4.450000e+00 2.949296e+00 6.000000e+00
      vertex   4.450000e+00 1.005070e+01 6.000000e+00
      vertex   2.647260e+00 5.097718e+00 6.000000e+00
    endloop
  endfacet
  facet normal 0.000000e+00 0.000000e+00 1.000000e+00
    outer loop
      vertex   2.647260e+00 5.097718e+00 6.000000e+00
      vertex   4.450000e+00 1.005070e+01 6.000000e+00
      vertex   2.647260e+00 7.902282e+00 6.000000e+00
    endloop
  endfacet
  facet normal -6.847910e-01 2.492434e-01 6.847912e-01
    outer loop
      vertex   1.964907e+01 1.753582e+01 4.000000e+00
      vertex   2.118116e+01 1.625024e+01 6.000000e+00
      vertex   2.000000e+01 1.850000e+01 4.000000e+00
    endloop
  endfacet
  facet normal -6.847911e-01 2.492433e-01 6.847912e-01
    outer loop
      vertex   2.000000e+01 1.850000e+01 4.000000e+00
      vertex   2.118116e+01 1.625024e+01 6.000000e+00
      vertex   2.200000e+01 1.850000e+01 6.000000e+00
    endloop
  endfacet
  facet normal -6.847911e-01 -2.492434e-01 6.847912e-01
    outer loop
      vertex   2.000000e+01 1.850000e+01 4.000000e+00
      vertex   2.200000e+01 1.850000e+01 6.000000e+00
      vertex   1.964907e+01 1.946418e+01 4.000000e+00
    endloop
  endfacet
  facet normal -6.847911e-01 -2.492433e-01 6.847912e-01
    outer loop
      vertex   1.964907e+01 1.946418e+01 4.000000e+00
      vertex   2.200000e+01 1.850000e+01 6.000000e+00
      vertex   2.118116e+01 2.074976e+01 6.000000e+00
    endloop
  endfacet
  facet normal -3.643697e-01 -6.311067e-01 6.847912e-01
    outer loop
      vertex   1.964907e+01 1.946418e+01 4.000000e+00
      vertex   2.118116e+01 2.074976e+01 6.000000e+00
      vertex   1.876047e+01 1.997721e+01 4.000000e+00
    endloop
  endfacet
  facet normal -3.643692e-01 -6.311074e-01 6.847909e-01
    outer loop
      vertex   1.876047e+01 1.997721e+01 4.000000e+00
      vertex   2.118116e+01 2.074976e+01 6.000000e+00
      vertex   1.910777e+01 2.194683e+01 6.000000e+00
    endloop
  endfacet
  facet normal 1.265444e-01 -7.176685e-01 6.847908e-01
    outer loop
      vertex   1.876047e+01 1.997721e+01 4.000000e+00
      vertex   1.910777e+01 2.194683e+01 6.000000e+00
      vertex   1.775000e+01 1.979904e+01 4.000000e+00
    endloop
  endfacet
  facet normal 1.265441e-01 -7.176685e-01 6.847909e-01
    outer loop
      vertex   1.775000e+01 1.979904e+01 4.000000e+00
      vertex   1.910777e+01 2.194683e+01 6.000000e+00
      vertex   1.675000e+01 2.153109e+01 6.000000e+00
    endloop
  endfacet
  facet normal 5.582469e-01 -4.684247e-01 6.847910e-01
    outer loop
      vertex   1.775000e+01 1.979904e+01 4.000000e+00
      vertex   1.675000e+01 2.153109e+01 6.000000e+00
      vertex   1.709046e+01 1.901303e+01 4.000000e+00
    endloop
  endfacet
  facet normal 5.582468e-01 -4.684247e-01 6.847910e-01
    outer loop
      vertex   1.709046e+01 1.901303e+01 4.000000e+00
      vertex   1.675000e+01 2.153109e+01 6.000000e+00
      vertex   1.521108e+01 1.969707e+01 6.000000e+00
    endloop
  endfacet
  facet normal 7.287394e-01 0.000000e+00 6.847911e-01
    outer loop
      vertex   1.709046e+01 1.901303e+01 4.000000e+00
      vertex   1.521108e+01 1.969707e+01 6.000000e+00
      vertex   1.709046e+01 1.798697e+01 4.000000e+00
    endloop
  endfacet
  facet normal 7.287394e-01 0.000000e+00 6.847911e-01
    outer loop
      vertex   1.709046e+01 1.798697e+01 4.000000e+00
      vertex   1.521108e+01 1.969707e+01 6.000000e+00
      vertex   1.521108e+01 1.730293e+01 6.000000e+00
    endloop
  endfacet
  facet normal 5.582468e-01 4.684245e-01 6.847912e-01
    outer loop
      vertex   1.709046e+01 1.798697e+01 4.000000e+00
      vertex   1.521108e+01 1.730293e+01 6.000000e+00
      vertex   1.775000e+01 1.720096e+01 4.000000e+00
    endloop
  endfacet
  facet normal 5.582468e-01 4.684246e-01 6.847912e-01
    outer loop
      vertex   1.775000e+01 1.720096e+01 4.000000e+00
      vertex   1.521108e+01 1.730293e+01 6.000000e+00
      vertex   1.675000e+01 1.546891e+01 6.000000e+00
    endloop
  endfacet
  facet normal 1.265444e-01 7.176681e-01 6.847912e-01
    outer loop
      vertex   1.775000e+01 1.720096e+01 4.000000e+00
      vertex   1.675000e+01 1.546891e+01 6.000000e+00
      vertex   1.876047e+01 1.702279e+01 4.000000e+00
    endloop
  endfacet
  facet normal 1.265441e-01 7.176683e-01 6.847910e-01
    outer loop
      vertex   1.876047e+01 1.702279e+01 4.000000e+00
      vertex   1.675000e+01 1.546891e+01 6.000000e+00
      vertex   1.910777e+01 1.505317e+01 6.000000e+00
    endloop
  endfacet
  facet normal -3.643698e-01 6.311069e-01 6.847910e-01
    outer loop
      vertex   1.876047e+01 1.702279e+01 4.000000e+00
      vertex   1.910777e+01 1.505317e+01 6.000000e+00
      vertex   1.964907e+01 1.753582e+01 4.000000e+00
    endloop
  endfacet
  facet normal -3.643694e-01 6.311070e-01 6.847911e-01
    outer loop
      vertex   1.964907e+01 1.753582e+01 4.000000e+00
      vertex   1.910777e+01 1.505317e+01 6.000000e+00
      vertex   2.118116e+01 1.625024e+01 6.000000e+00
    endloop
  endfacet
  facet normal 9.394525e-01 -3.419325e-01 2.260953e-02
    outer loop
      vertex   1.735093e+01 1.946418e+01 0.000000e+00
      vertex   1.709046e+01 1.901303e+01 4.000000e+00
      vertex   1.700000e+01 1.850000e+01 0.000000e+00
    endloop
  endfacet
  facet normal 9.997444e-01 0.000000e+00 -2.260941e-02
    outer loop
      vertex   1.700000e+01 1.850000e+01 0.000000e+00
      vertex   1.709046e+01 1.901303e+01 4.000000e+00
      vertex   1.709046e+01 1.798697e+01 4.000000e+00
    endloop
  endfacet
  facet normal 9.394525e-01 3.419325e-01 2.260953e-02
    outer loop
      vertex   1.700000e+01 1.850000e+01 0.000000e+00
      vertex   1.709046e+01 1.798697e+01 4.000000e+00
      vertex   1.735093e+01 1.753582e+01 0.000000e+00
    endloop
  endfacet
  facet normal 7.658487e-01 6.426232e-01 -2.260945e-02
    outer loop
      vertex   1.735093e+01 1.753582e+01 0.000000e+00
      vertex   1.709046e+01 1.798697e+01 4.000000e+00
      vertex   1.775000e+01 1.720096e+01 4.000000e+00
    endloop
  endfacet
  facet normal 4.998722e-01 8.658040e-01 2.260949e-02
    outer loop
      vertex   1.735093e+01 1.753582e+01 0.000000e+00
      vertex   1.775000e+01 1.720096e+01 4.000000e+00
      vertex   1.823953e+01 1.702279e+01 0.000000e+00
    endloop
  endfacet
  facet normal 1.736039e-01 9.845560e-01 -2.260951e-02
    outer loop
      vertex   1.823953e+01 1.702279e+01 0.000000e+00
      vertex   1.775000e+01 1.720096e+01 4.000000e+00
      vertex   1.876047e+01 1.702279e+01 4.000000e+00
    endloop
  endfacet
  facet normal -1.736041e-01 9.845559e-01 2.260953e-02
    outer loop
      vertex   1.823953e+01 1.702279e+01 0.000000e+00
      vertex   1.876047e+01 1.702279e+01 4.000000e+00
      vertex   1.925000e+01 1.720096e+01 0.000000e+00
    endloop
  endfacet
  facet normal -4.998722e-01 8.658040e-01 -2.260935e-02
    outer loop
      vertex   1.925000e+01 1.720096e+01 0.000000e+00
      vertex   1.876047e+01 1.702279e+01 4.000000e+00
      vertex   1.964907e+01 1.753582e+01 4.000000e+00
    endloop
  endfacet
  facet normal -7.658482e-01 6.426239e-01 2.260956e-02
    outer loop
      vertex   1.925000e+01 1.720096e+01 0.000000e+00
      vertex   1.964907e+01 1.753582e+01 4.000000e+00
      vertex   1.990954e+01 1.798697e+01 0.000000e+00
    endloop
  endfacet
  facet normal -9.394525e-01 3.419325e-01 -2.260953e-02
    outer loop
      vertex   1.990954e+01 1.798697e+01 0.000000e+00
      vertex   1.964907e+01 1.753582e+01 4.000000e+00
      vertex   2.000000e+01 1.850000e+01 4.000000e+00
    endloop
  endfacet
  facet normal -9.997444e-01 0.000000e+00 2.260941e-02
    outer loop
      vertex   1.990954e+01 1.798697e+01 0.000000e+00
      vertex   2.000000e+01 1.850000e+01 4.000000e+00
      vertex   1.990954e+01 1.901303e+01 0.000000e+00
    endloop
  endfacet
  facet normal -9.394525e-01 -3.419325e-01 -2.260953e-02
    outer loop
      vertex   1.990954e+01 1.901303e+01 0.000000e+00
      vertex   2.000000e+01 1.850000e+01 4.000000e+00
      vertex   1.964907e+01 1.946418e+01 4.000000e+00
    endloop
  endfacet
  facet normal -7.658482e-01 -6.426239e-01 2.260956e-02
    outer loop
      vertex   1.990954e+01 1.901303e+01 0.000000e+00
      vertex   1.964907e+01 1.946418e+01 4.000000e+00
      vertex   1.925000e+01 1.979904e+01 0.000000e+00
    endloop
  endfacet
  facet normal -4.998722e-01 -8.658040e-01 -2.260935e-02
    outer loop
      vertex   1.925000e+01 1.979904e+01 0.000000e+00
      vertex   1.964907e+01 1.946418e+01 4.000000e+00
      vertex   1.876047e+01 1.997721e+01 4.000000e+00
    endloop
  endfacet
  facet normal -1.736041e-01 -9.845559e-01 2.260953e-02
    outer loop
      vertex   1.925000e+01 1.979904e+01 0.000000e+00
      vertex   1.876047e+01 1.997721e+01 4.000000e+00
      vertex   1.823953e+01 1.997721e+01 0.000000e+00
    endloop
  endfacet
  facet normal 1.736039e-01 -9.845560e-01 -2.260951e-02
    outer loop
      vertex   1.823953e+01 1.997721e+01 0.000000e+00
      vertex   1.876047e+01 1.997721e+01 4.000000e+00
      vertex   1.775000e+01 1.979904e+01 4.000000e+00
    endloop
  endfacet
  facet normal 4.998722e-01 -8.658040e-01 2.260949e-02
    outer loop
      vertex   1.823953e+01 1.997721e+01 0.000000e+00
      vertex   1.775000e+01 1.979904e+01 4.000000e+00
      vertex   1.735093e+01 1.946418e+01 0.000000e+00
    endloop
  endfacet
  facet normal 7.658487e-01 -6.426232e-01 -2.260945e-02
    outer loop
      vertex   1.735093e+01 1.946418e+01 0.000000e+00
      vertex   1.775000e+01 1.979904e+01 4.000000e+00
      vertex   1.709046e+01 1.901303e+01 4.000000e+00
    endloop
  endfacet
  facet normal 0.000000e+00 -0.000000e+00 1.000000e+00
    outer loop
      vertex   2.233022e+01 1.528606e+01 6.000000e+00
      vertex   2.350000e+01 1.850000e+01 6.000000e+00
      vertex   2.200000e+01 1.850000e+01 6.000000e+00
    endloop
  endfacet
  facet normal 0.000000e+00 0.000000e+00 1.000000e+00
    outer loop
      vertex   2.200000e+01 1.850000e+01 6.000000e+00
      vertex   2.350000e+01 1.850000e+01 6.000000e+00
      vertex   2.233022e+01 2.171394e+01 6.000000e+00
    endloop
  endfacet
  facet normal 0.000000e+00 -0.000000e+00 1.000000e+00
    outer loop
      vertex   2.200000e+01 1.850000e+01 6.000000e+00
      vertex   2.233022e+01 2.171394e+01 6.000000e+00
      vertex   2.118116e+01 2.074976e+01 6.000000e+00
    endloop
  endfacet
  facet normal 0.000000e+00 -0.000000e+00 1.000000e+00
    outer loop
      vertex   2.118116e+01 2.074976e+01 6.000000e+00
      vertex   2.233022e+01 2.171394e+01 6.000000e+00
      vertex   1.936824e+01 2.342404e+01 6.000000e+00
    endloop
  endfacet
  facet normal 0.000000e+00 0.000000e+00 1.000000e+00
    outer loop
      vertex   2.118116e+01 2.074976e+01 6.000000e+00
      vertex   1.936824e+01 2.342404e+01 6.000000e+00
      vertex   1.910777e+01 2.194683e+01 6.000000e+00
    endloop
  endfacet
  facet normal 0.000000e+00 -0.000000e+00 1.000000e+00
    outer loop
      vertex   1.910777e+01 2.194683e+01 6.000000e+00
      vertex   1.936824e+01 2.342404e+01 6.000000e+00
      vertex   1.675000e+01 2.153109e+01 6.000000e+00
    endloop
  endfacet
  facet normal 0.000000e+00 -0.000000e+00 1.000000e+00
    outer loop
      vertex   1.675000e+01 2.153109e+01 6.000000e+00
      vertex   1.936824e+01 2.342404e+01 6.000000e+00
      vertex   1.600000e+01 2.283013e+01 6.000000e+00
    endloop
  endfacet
  facet normal 0.000000e+00 0.000000e+00 1.000000e+00
    outer loop
      vertex   1.675000e+01 2.153109e+01 6.000000e+00
      vertex   1.600000e+01 2.283013e+01 6.000000e+00
      vertex   1.521108e+01 1.969707e+01 6.000000e+00
    endloop
  endfacet
  facet normal 0.000000e+00 -0.000000e+00 1.000000e+00
    outer loop
      vertex   1.521108e+01 1.969707e+01 6.000000e+00
      vertex   1.600000e+01 2.283013e+01 6.000000e+00
      vertex   1.380154e+01 2.021010e+01 6.000000e+00
    endloop
  endfacet
  facet normal 0.000000e+00 0.000000e+00 1.000000e+00
    outer loop
      vertex   1.521108e+01 1.969707e+01 6.000000e+00
      vertex   1.380154e+01 2.021010e+01 6.000000e+00
      vertex   1.380154e+01 1.678990e+01 6.000000e+00
    endloop
  endfacet
  facet normal 0.000000e+00 0.000000e+00 1.000000e+00
    outer loop
      vertex   1.521108e+01 1.969707e+01 6.000000e+00
      vertex   1.380154e+01 1.678990e+01 6.000000e+00
      vertex   1.521108e+01 1.730293e+01 6.000000e+00
    endloop
  endfacet
  facet normal 0.000000e+00 0.000000e+00 1.000000e+00
    outer loop
      vertex   1.521108e+01 1.730293e+01 6.000000e+00
      vertex   1.380154e+01 1.678990e+01 6.000000e+00
      vertex   1.600000e+01 1.416987e+01 6.000000e+00
    endloop
  endfacet
  facet normal 0.000000e+00 0.000000e+00 1.000000e+00
    outer loop
      vertex   1.521108e+01 1.730293e+01 6.000000e+00
      vertex   1.600000e+01 1.416987e+01 6.000000e+00
      vertex   1.675000e+01 1.546891e+01 6.000000e+00
    endloop
  endfacet
  facet normal 0.000000e+00 0.000000e+00 1.000000e+00
    outer loop
      vertex   1.675000e+01 1.546891e+01 6.000000e+00
      vertex   1.600000e+01 1.416987e+01 6.000000e+00
      vertex   1.936824e+01 1.357596e+01 6.000000e+00
    endloop
  endfacet
  facet normal 0.000000e+00 0.000000e+00 1.000000e+00
    outer loop
      vertex   1.675000e+01 1.546891e+01 6.000000e+00
      vertex   1.936824e+01 1.357596e+01 6.000000e+00
      vertex   1.910777e+01 1.505317e+01 6.000000e+00
    endloop
  endfacet
  facet normal -0.000000e+00 0.000000e+00 1.000000e+00
    outer loop
      vertex   1.910777e+01 1.505317e+01 6.000000e+00
      vertex   1.936824e+01 1.357596e+01 6.000000e+00
      vertex   2.118116e+01 1.625024e+01 6.000000e+00
    endloop
  endfacet
  facet normal 0.000000e+00 0.000000e+00 1.000000e+00
    outer loop
      vertex   2.118116e+01 1.625024e+01 6.000000e+00
      vertex   1.936824e+01 1.357596e+01 6.000000e+00
      vertex   2.233022e+01 1.528606e+01 6.000000e+00
    endloop
  endfacet
  facet normal -0.000000e+00 0.000000e+00 1.000000e+00
    outer loop
      vertex   2.118116e+01 1.625024e+01 6.000000e+00
      vertex   2.233022e+01 1.528606e+01 6.000000e+00
      vertex   2.200000e+01 1.850000e+01 6.000000e+00
    endloop
  endfacet
  facet normal -9.396927e-01 -3.420199e-01 0.000000e+00
    outer loop
      vertex   2.233022e+01 2.171394e+01 2.200000e+01
      vertex   2.350000e+01 1.850000e+01 6.000000e+00
      vertex   2.350000e+01 1.850000e+01 2.200000e+01
    endloop
  endfacet
  facet normal -9.396927e-01 3.420199e-01 0.000000e+00
    outer loop
      vertex   2.350000e+01 1.850000e+01 2.200000e+01
      vertex   2.350000e+01 1.850000e+01 6.000000e+00
      vertex   2.233022e+01 1.528606e+01 6.000000e+00
    endloop
  endfacet
  facet normal -9.396927e-01 3.420199e-01 0.000000e+00
    outer loop
      vertex   2.350000e+01 1.850000e+01 2.200000e+01
      vertex   2.233022e+01 1.528606e+01 6.000000e+00
      vertex   2.233022e+01 1.528606e+01 2.200000e+01
    endloop
  endfacet
  facet normal -4.999999e-01 8.660255e-01 0.000000e+00
    outer loop
      vertex   2.233022e+01 1.528606e+01 2.200000e+01
      vertex   2.233022e+01 1.528606e+01 6.000000e+00
      vertex   1.936824e+01 1.357596e+01 6.000000e+00
    endloop
  endfacet
  facet normal -4.999999e-01 8.660255e-01 0.000000e+00
    outer loop
      vertex   2.233022e+01 1.528606e+01 2.200000e+01
      vertex   1.936824e+01 1.357596e+01 6.000000e+00
      vertex   1.936824e+01 1.357596e+01 2.200000e+01
    endloop
  endfacet
  facet normal 1.736481e-01 9.848078e-01 0.000000e+00
    outer loop
      vertex   1.936824e+01 1.357596e+01 2.200000e+01
      vertex   1.936824e+01 1.357596e+01 6.000000e+00
      vertex   1.600000e+01 1.416987e+01 6.000000e+00
    endloop
  endfacet
  facet normal 1.736481e-01 9.848078e-01 0.000000e+00
    outer loop
      vertex   1.936824e+01 1.357596e+01 2.200000e+01
      vertex   1.600000e+01 1.416987e+01 6.000000e+00
      vertex   1.600000e+01 1.416987e+01 2.200000e+01
    endloop
  endfacet
  facet normal 7.660443e-01 6.427878e-01 0.000000e+00
    outer loop
      vertex   1.600000e+01 1.416987e+01 2.200000e+01
      vertex   1.600000e+01 1.416987e+01 6.000000e+00
      vertex   1.380154e+01 1.678990e+01 6.000000e+00
    endloop
  endfacet
  facet normal 7.660443e-01 6.427878e-01 0.000000e+00
    outer loop
      vertex   1.600000e+01 1.416987e+01 2.200000e+01
      vertex   1.380154e+01 1.678990e+01 6.000000e+00
      vertex   1.380154e+01 1.678990e+01 2.200000e+01
    endloop
  endfacet
  facet normal 1.000000e+00 0.000000e+00 0.000000e+00
    outer loop
      vertex   1.380154e+01 1.678990e+01 2.200000e+01
      vertex   1.380154e+01 1.678990e+01 6.000000e+00
      vertex   1.380154e+01 2.021010e+01 6.000000e+00
    endloop
  endfacet
  facet normal 1.000000e+00 -0.000000e+00 0.000000e+00
    outer loop
      vertex   1.380154e+01 1.678990e+01 2.200000e+01
      vertex   1.380154e+01 2.021010e+01 6.000000e+00
      vertex   1.380154e+01 2.021010e+01 2.200000e+01
    endloop
  endfacet
  facet normal 7.660442e-01 -6.427879e-01 0.000000e+00
    outer loop
      vertex   1.380154e+01 2.021010e+01 2.200000e+01
      vertex   1.380154e+01 2.021010e+01 6.000000e+00
      vertex   1.600000e+01 2.283013e+01 6.000000e+00
    endloop
  endfacet
  facet normal 7.660442e-01 -6.427879e-01 0.000000e+00
    outer loop
      vertex   1.380154e+01 2.021010e+01 2.200000e+01
      vertex   1.600000e+01 2.283013e+01 6.000000e+00
      vertex   1.600000e+01 2.283013e+01 2.200000e+01
    endloop
  endfacet
  facet normal 1.736484e-01 -9.848077e-01 0.000000e+00
    outer loop
      vertex   1.600000e+01 2.283013e+01 2.200000e+01
      vertex   1.600000e+01 2.283013e+01 6.000000e+00
      vertex   1.936824e+01 2.342404e+01 6.000000e+00
    endloop
  endfacet
  facet normal 1.736484e-01 -9.848077e-01 0.000000e+00
    outer loop
      vertex   1.600000e+01 2.283013e+01 2.200000e+01
      vertex   1.936824e+01 2.342404e+01 6.000000e+00
      vertex   1.936824e+01 2.342404e+01 2.200000e+01
    endloop
  endfacet
  facet normal -4.999999e-01 -8.660255e-01 -0.000000e+00
    outer loop
      vertex   1.936824e+01 2.342404e+01 2.200000e+01
      vertex   1.936824e+01 2.342404e+01 6.000000e+00
      vertex   2.233022e+01 2.171394e+01 6.000000e+00
    endloop
  endfacet
  facet normal -4.999999e-01 -8.660255e-01 0.000000e+00
    outer loop
      vertex   1.936824e+01 2.342404e+01 2.200000e+01
      vertex   2.233022e+01 2.171394e+01 6.000000e+00
      vertex   2.233022e+01 2.171394e+01 2.200000e+01
    endloop
  endfacet
  facet normal -9.396927e-01 -3.420199e-01 -0.000000e+00
    outer loop
      vertex   2.233022e+01 2.171394e+01 2.200000e+01
      vertex   2.233022e+01 2.171394e+01 6.000000e+00
      vertex   2.350000e+01 1.850000e+01 6.000000e+00
    endloop
  endfacet
  facet normal 0.000000e+00 -1.000000e+00 0.000000e+00
    outer loop
      vertex   5.000000e+00 0.000000e+00 0.000000e+00
      vertex   2.500000e+01 0.000000e+00 0.000000e+00
      vertex   5.000000e+00 0.000000e+00 2.200000e+01
    endloop
  endfacet
  facet normal 0.000000e+00 -1.000000e+00 0.000000e+00
    outer loop
      vertex   5.000000e+00 0.000000e+00 2.200000e+01
      vertex   2.500000e+01 0.000000e+00 0.000000e+00
      vertex   2.500000e+01 0.000000e+00 2.200000e+01
    endloop
  endfacet
  facet normal -9.659258e-01 -2.588190e-01 0.000000e+00
    outer loop
      vertex   0.000000e+00 5.000000e+00 0.000000e+00
      vertex   6.698730e-01 2.500000e+00 0.000000e+00
      vertex   0.000000e+00 5.000000e+00 2.200000e+01
    endloop
  endfacet
  facet normal -9.659258e-01 -2.588190e-01 0.000000e+00
    outer loop
      vertex   0.000000e+00 5.000000e+00 2.200000e+01
      vertex   6.698730e-01 2.500000e+00 0.000000e+00
      vertex   6.698730e-01 2.500000e+00 2.200000e+01
    endloop
  endfacet
  facet normal -7.071068e-01 -7.071068e-01 -0.000000e+00
    outer loop
      vertex   6.698730e-01 2.500000e+00 2.200000e+01
      vertex   6.698730e-01 2.500000e+00 0.000000e+00
      vertex   2.500000e+00 6.698730e-01 2.200000e+01
    endloop
  endfacet
  facet normal -7.071068e-01 -7.071068e-01 -0.000000e+00
    outer loop
      vertex   2.500000e+00 6.698730e-01 2.200000e+01
      vertex   6.698730e-01 2.500000e+00 0.000000e+00
      vertex   2.500000e+00 6.698730e-01 0.000000e+00
    endloop
  endfacet
  facet normal -2.588190e-01 -9.659258e-01 -0.000000e+00
    outer loop
      vertex   2.500000e+00 6.698730e-01 2.200000e+01
      vertex   2.500000e+00 6.698730e-01 0.000000e+00
      vertex   5.000000e+00 0.000000e+00 2.200000e+01
    endloop
  endfacet
  facet normal -2.588190e-01 -9.659258e-01 -0.000000e+00
    outer loop
      vertex   5.000000e+00 0.000000e+00 2.200000e+01
      vertex   2.500000e+00 6.698730e-01 0.000000e+00
      vertex   5.000000e+00 0.000000e+00 0.000000e+00
    endloop
  endfacet
  facet normal -1.000000e+00 0.000000e+00 0.000000e+00
    outer loop
      vertex   0.000000e+00 2.500000e+01 0.000000e+00
      vertex   0.000000e+00 5.000000e+00 0.000000e+00
      vertex   0.000000e+00 2.500000e+01 2.200000e+01
    endloop
  endfacet
  facet normal -1.000000e+00 -0.000000e+00 0.000000e+00
    outer loop
      vertex   0.000000e+00 2.500000e+01 2.200000e+01
      vertex   0.000000e+00 5.000000e+00 0.000000e+00
      vertex   0.000000e+00 5.000000e+00 2.200000e+01
    endloop
  endfacet
  facet normal 0.000000e+00 1.000000e+00 -0.000000e+00
    outer loop
      vertex   2.000000e+01 2.500000e+01 0.000000e+00
      vertex   0.000000e+00 2.500000e+01 0.000000e+00
      vertex   2.000000e+01 2.500000e+01 2.200000e+01
    endloop
  endfacet
  facet normal 0.000000e+00 1.000000e+00 0.000000e+00
    outer loop
      vertex   2.000000e+01 2.500000e+01 2.200000e+01
      vertex   0.000000e+00 2.500000e+01 0.000000e+00
      vertex   0.000000e+00 2.500000e+01 2.200000e+01
    endloop
  endfacet
  facet normal 9.659258e-01 2.588190e-01 -0.000000e+00
    outer loop
      vertex   2.500000e+01 2.000000e+01 0.000000e+00
      vertex   2.433013e+01 2.250000e+01 0.000000e+00
      vertex   2.500000e+01 2.000000e+01 2.200000e+01
    endloop
  endfacet
  facet normal 9.659258e-01 2.588190e-01 0.000000e+00
    outer loop
      vertex   2.500000e+01 2.000000e+01 2.200000e+01
      vertex   2.433013e+01 2.250000e+01 0.000000e+00
      vertex   2.433013e+01 2.250000e+01 2.200000e+01
    endloop
  endfacet
  facet normal 7.071068e-01 7.071068e-01 0.000000e+00
    outer loop
      vertex   2.433013e+01 2.250000e+01 2.200000e+01
      vertex   2.433013e+01 2.250000e+01 0.000000e+00
      vertex   2.250000e+01 2.433013e+01 2.200000e+01
    endloop
  endfacet
  facet normal 7.071068e-01 7.071068e-01 0.000000e+00
    outer loop
      vertex   2.250000e+01 2.433013e+01 2.200000e+01
      vertex   2.433013e+01 2.250000e+01 0.000000e+00
      vertex   2.250000e+01 2.433013e+01 0.000000e+00
    endloop
  endfacet
  facet normal 2.588190e-01 9.659258e-01 0.000000e+00
    outer loop
      vertex   2.250000e+01 2.433013e+01 2.200000e+01
      vertex   2.250000e+01 2.433013e+01 0.000000e+00
      vertex   2.000000e+01 2.500000e+01 2.200000e+01
    endloop
  endfacet
  facet normal 2.588190e-01 9.659258e-01 0.000000e+00
    outer loop
      vertex   2.000000e+01 2.500000e+01 2.200000e+01
      vertex   2.250000e+01 2.433013e+01 0.000000e+00
      vertex   2.000000e+01 2.500000e+01 0.000000e+00
    endloop
  endfacet
  facet normal 1.000000e+00 0.000000e+00 0.000000e+00
    outer loop
      vertex   2.500000e+01 0.000000e+00 0.000000e+00
      vertex   2.500000e+01 2.000000e+01 0.000000e+00
      vertex   2.500000e+01 0.000000e+00 2.200000e+01
    endloop
  endfacet
  facet normal 1.000000e+00 -0.000000e+00 0.000000e+00
    outer loop
      vertex   2.500000e+01 0.000000e+00 2.200000e+01
      vertex   2.500000e+01 2.000000e+01 0.000000e+00
      vertex   2.500000e+01 2.000000e+01 2.200000e+01
    endloop
  endfacet
  facet normal -0.000000e+00 0.000000e+00 1.000000e+00
    outer loop
      vertex   9.640782e+00 3.864571e+00 2.200000e+01
      vertex   2.500000e+01 0.000000e+00 2.200000e+01
      vertex   1.060000e+01 6.500000e+00 2.200000e+01
    endloop
  endfacet
  facet normal -0.000000e+00 0.000000e+00 1.000000e+00
    outer loop
      vertex   1.060000e+01 6.500000e+00 2.200000e+01
      vertex   2.500000e+01 0.000000e+00 2.200000e+01
      vertex   1.936824e+01 1.357596e+01 2.200000e+01
    endloop
  endfacet
  facet normal 0.000000e+00 0.000000e+00 1.000000e+00
    outer loop
      vertex   1.060000e+01 6.500000e+00 2.200000e+01
      vertex   1.936824e+01 1.357596e+01 2.200000e+01
      vertex   1.600000e+01 1.416987e+01 2.200000e+01
    endloop
  endfacet
  facet normal 0.000000e+00 0.000000e+00 1.000000e+00
    outer loop
      vertex   9.640782e+00 3.864571e+00 2.200000e+01
      vertex   7.211958e+00 2.462288e+00 2.200000e+01
      vertex   2.500000e+01 0.000000e+00 2.200000e+01
    endloop
  endfacet
  facet normal 0.000000e+00 0.000000e+00 1.000000e+00
    outer loop
      vertex   2.500000e+01 0.000000e+00 2.200000e+01
      vertex   7.211958e+00 2.462288e+00 2.200000e+01
      vertex   5.000000e+00 0.000000e+00 2.200000e+01
    endloop
  endfacet
  facet normal 0.000000e+00 -0.000000e+00 1.000000e+00
    outer loop
      vertex   5.000000e+00 0.000000e+00 2.200000e+01
      vertex   7.211958e+00 2.462288e+00 2.200000e+01
      vertex   4.450000e+00 2.949296e+00 2.200000e+01
    endloop
  endfacet
  facet normal 0.000000e+00 0.000000e+00 1.000000e+00
    outer loop
      vertex   5.000000e+00 0.000000e+00 2.200000e+01
      vertex   4.450000e+00 2.949296e+00 2.200000e+01
      vertex   2.500000e+00 6.698730e-01 2.200000e+01
    endloop
  endfacet
  facet normal 0.000000e+00 -0.000000e+00 1.000000e+00
    outer loop
      vertex   2.500000e+00 6.698730e-01 2.200000e+01
      vertex   4.450000e+00 2.949296e+00 2.200000e+01
      vertex   6.698730e-01 2.500000e+00 2.200000e+01
    endloop
  endfacet
  facet normal 0.000000e+00 0.000000e+00 1.000000e+00
    outer loop
      vertex   6.698730e-01 2.500000e+00 2.200000e+01
      vertex   4.450000e+00 2.949296e+00 2.200000e+01
      vertex   2.647260e+00 5.097718e+00 2.200000e+01
    endloop
  endfacet
  facet normal 0.000000e+00 -0.000000e+00 1.000000e+00
    outer loop
      vertex   6.698730e-01 2.500000e+00 2.200000e+01
      vertex   2.647260e+00 5.097718e+00 2.200000e+01
      vertex   0.000000e+00 5.000000e+00 2.200000e+01
    endloop
  endfacet
  facet normal 0.000000e+00 0.000000e+00 1.000000e+00
    outer loop
      vertex   0.000000e+00 5.000000e+00 2.200000e+01
      vertex   2.647260e+00 5.097718e+00 2.200000e+01
      vertex   2.647260e+00 7.902282e+00 2.200000e+01
    endloop
  endfacet
  facet normal 0.000000e+00 0.000000e+00 1.000000e+00
    outer loop
      vertex   0.000000e+00 5.000000e+00 2.200000e+01
      vertex   2.647260e+00 7.902282e+00 2.200000e+01
      vertex   0.000000e+00 2.500000e+01 2.200000e+01
    endloop
  endfacet
  facet normal 0.000000e+00 0.000000e+00 1.000000e+00
    outer loop
      vertex   0.000000e+00 2.500000e+01 2.200000e+01
      vertex   2.647260e+00 7.902282e+00 2.200000e+01
      vertex   4.450000e+00 1.005070e+01 2.200000e+01
    endloop
  endfacet
  facet normal 0.000000e+00 0.000000e+00 1.000000e+00
    outer loop
      vertex   0.000000e+00 2.500000e+01 2.200000e+01
      vertex   4.450000e+00 1.005070e+01 2.200000e+01
      vertex   7.211958e+00 1.053771e+01 2.200000e+01
    endloop
  endfacet
  facet normal 0.000000e+00 0.000000e+00 1.000000e+00
    outer loop
      vertex   0.000000e+00 2.500000e+01 2.200000e+01
      vertex   7.211958e+00 1.053771e+01 2.200000e+01
      vertex   1.380154e+01 1.678990e+01 2.200000e+01
    endloop
  endfacet
  facet normal 0.000000e+00 0.000000e+00 1.000000e+00
    outer loop
      vertex   1.380154e+01 1.678990e+01 2.200000e+01
      vertex   7.211958e+00 1.053771e+01 2.200000e+01
      vertex   9.640782e+00 9.135429e+00 2.200000e+01
    endloop
  endfacet
  facet normal 0.000000e+00 0.000000e+00 1.000000e+00
    outer loop
      vertex   1.380154e+01 1.678990e+01 2.200000e+01
      vertex   9.640782e+00 9.135429e+00 2.200000e+01
      vertex   1.600000e+01 1.416987e+01 2.200000e+01
    endloop
  endfacet
  facet normal 0.000000e+00 0.000000e+00 1.000000e+00
    outer loop
      vertex   1.600000e+01 1.416987e+01 2.200000e+01
      vertex   9.640782e+00 9.135429e+00 2.200000e+01
      vertex   1.060000e+01 6.500000e+00 2.200000e+01
    endloop
  endfacet
  facet normal 0.000000e+00 0.000000e+00 1.000000e+00
    outer loop
      vertex   2.233022e+01 2.171394e+01 2.200000e+01
      vertex   2.350000e+01 1.850000e+01 2.200000e+01
      vertex   2.500000e+01 2.000000e+01 2.200000e+01
    endloop
  endfacet
  facet normal 0.000000e+00 0.000000e+00 1.000000e+00
    outer loop
      vertex   2.500000e+01 2.000000e+01 2.200000e+01
      vertex   2.350000e+01 1.850000e+01 2.200000e+01
      vertex   2.233022e+01 1.528606e+01 2.200000e+01
    endloop
  endfacet
  facet normal 0.000000e+00 0.000000e+00 1.000000e+00
    outer loop
      vertex   2.500000e+01 2.000000e+01 2.200000e+01
      vertex   2.233022e+01 1.528606e+01 2.200000e+01
      vertex   2.500000e+01 0.000000e+00 2.200000e+01
    endloop
  endfacet
  facet normal 0.000000e+00 0.000000e+00 1.000000e+00
    outer loop
      vertex   2.500000e+01 0.000000e+00 2.200000e+01
      vertex   2.233022e+01 1.528606e+01 2.200000e+01
      vertex   1.936824e+01 1.357596e+01 2.200000e+01
    endloop
  endfacet
  facet normal 0.000000e+00 -0.000000e+00 1.000000e+00
    outer loop
      vertex   1.380154e+01 1.678990e+01 2.200000e+01
      vertex   1.380154e+01 2.021010e+01 2.200000e+01
      vertex   0.000000e+00 2.500000e+01 2.200000e+01
    endloop
  endfacet
  facet normal 0.000000e+00 0.000000e+00 1.000000e+00
    outer loop
      vertex   0.000000e+00 2.500000e+01 2.200000e+01
      vertex   1.380154e+01 2.021010e+01 2.200000e+01
      vertex   1.600000e+01 2.283013e+01 2.200000e+01
    endloop
  endfacet
  facet normal -0.000000e+00 0.000000e+00 1.000000e+00
    outer loop
      vertex   0.000000e+00 2.500000e+01 2.200000e+01
      vertex   1.600000e+01 2.283013e+01 2.200000e+01
      vertex   2.000000e+01 2.500000e+01 2.200000e+01
    endloop
  endfacet
  facet normal 0.000000e+00 0.000000e+00 1.000000e+00
    outer loop
      vertex   2.000000e+01 2.500000e+01 2.200000e+01
      vertex   1.600000e+01 2.283013e+01 2.200000e+01
      vertex   1.936824e+01 2.342404e+01 2.200000e+01
    endloop
  endfacet
  facet normal 0.000000e+00 0.000000e+00 1.000000e+00
    outer loop
      vertex   2.000000e+01 2.500000e+01 2.200000e+01
      vertex   1.936824e+01 2.342404e+01 2.200000e+01
      vertex   2.250000e+01 2.433013e+01 2.200000e+01
    endloop
  endfacet
  facet normal 0.000000e+00 0.000000e+00 1.000000e+00
    outer loop
      vertex   2.250000e+01 2.433013e+01 2.200000e+01
      vertex   1.936824e+01 2.342404e+01 2.200000e+01
      vertex   2.233022e+01 2.171394e+01 2.200000e+01
    endloop
  endfacet
  facet normal 0.000000e+00 0.000000e+00 1.000000e+00
    outer loop
      vertex   2.250000e+01 2.433013e+01 2.200000e+01
      vertex   2.233022e+01 2.171394e+01 2.200000e+01
      vertex   2.433013e+01 2.250000e+01 2.200000e+01
    endloop
  endfacet
  facet normal 0.000000e+00 0.000000e+00 1.000000e+00
    outer loop
      vertex   2.433013e+01 2.250000e+01 2.200000e+01
      vertex   2.233022e+01 2.171394e+01 2.200000e+01
      vertex   2.500000e+01 2.000000e+01 2.200000e+01
    endloop
  endfacet
  facet normal -0.000000e+00 0.000000e+00 -1.000000e+00
    outer loop
      vertex   1.735093e+01 1.753582e+01 0.000000e+00
      vertex   0.000000e+00 5.000000e+00 0.000000e+00
      vertex   1.700000e+01 1.850000e+01 0.000000e+00
    endloop
  endfacet
  facet normal -0.000000e+00 0.000000e+00 -1.000000e+00
    outer loop
      vertex   1.700000e+01 1.850000e+01 0.000000e+00
      vertex   0.000000e+00 5.000000e+00 0.000000e+00
      vertex   0.000000e+00 2.500000e+01 0.000000e+00
    endloop
  endfacet
  facet normal 0.000000e+00 0.000000e+00 -1.000000e+00
    outer loop
      vertex   1.700000e+01 1.850000e+01 0.000000e+00
      vertex   0.000000e+00 2.500000e+01 0.000000e+00
      vertex   1.735093e+01 1.946418e+01 0.000000e+00
    endloop
  endfacet
  facet normal 0.000000e+00 0.000000e+00 -1.000000e+00
    outer loop
      vertex   1.735093e+01 1.946418e+01 0.000000e+00
      vertex   0.000000e+00 2.500000e+01 0.000000e+00
      vertex   2.000000e+01 2.500000e+01 0.000000e+00
    endloop
  endfacet
  facet normal 0.000000e+00 0.000000e+00 -1.000000e+00
    outer loop
      vertex   1.735093e+01 1.946418e+01 0.000000e+00
      vertex   2.000000e+01 2.500000e+01 0.000000e+00
      vertex   1.823953e+01 1.997721e+01 0.000000e+00
    endloop
  endfacet
  facet normal 0.000000e+00 0.000000e+00 -1.000000e+00
    outer loop
      vertex   1.823953e+01 1.997721e+01 0.000000e+00
      vertex   2.000000e+01 2.500000e+01 0.000000e+00
      vertex   1.925000e+01 1.979904e+01 0.000000e+00
    endloop
  endfacet
  facet normal 0.000000e+00 0.000000e+00 -1.000000e+00
    outer loop
      vertex   1.925000e+01 1.979904e+01 0.000000e+00
      vertex   2.000000e+01 2.500000e+01 0.000000e+00
      vertex   2.250000e+01 2.433013e+01 0.000000e+00
    endloop
  endfacet
  facet normal 0.000000e+00 0.000000e+00 -1.000000e+00
    outer loop
      vertex   1.925000e+01 1.979904e+01 0.000000e+00
      vertex   2.250000e+01 2.433013e+01 0.000000e+00
      vertex   2.433013e+01 2.250000e+01 0.000000e+00
    endloop
  endfacet
  facet normal 0.000000e+00 0.000000e+00 -1.000000e+00
    outer loop
      vertex   0.000000e+00 5.000000e+00 0.000000e+00
      vertex   1.735093e+01 1.753582e+01 0.000000e+00
      vertex   5.000000e+00 0.000000e+00 0.000000e+00
    endloop
  endfacet
  facet normal 0.000000e+00 0.000000e+00 -1.000000e+00
    outer loop
      vertex   5.000000e+00 0.000000e+00 0.000000e+00
      vertex   1.735093e+01 1.753582e+01 0.000000e+00
      vertex   1.823953e+01 1.702279e+01 0.000000e+00
    endloop
  endfacet
  facet normal 0.000000e+00 0.000000e+00 -1.000000e+00
    outer loop
      vertex   5.000000e+00 0.000000e+00 0.000000e+00
      vertex   1.823953e+01 1.702279e+01 0.000000e+00
      vertex   2.500000e+01 0.000000e+00 0.000000e+00
    endloop
  endfacet
  facet normal 0.000000e+00 0.000000e+00 -1.000000e+00
    outer loop
      vertex   2.500000e+01 0.000000e+00 0.000000e+00
      vertex   1.823953e+01 1.702279e+01 0.000000e+00
      vertex   1.925000e+01 1.720096e+01 0.000000e+00
    endloop
  endfacet
  facet normal 0.000000e+00 0.000000e+00 -1.000000e+00
    outer loop
      vertex   2.500000e+01 0.000000e+00 0.000000e+00
      vertex   1.925000e+01 1.720096e+01 0.000000e+00
      vertex   2.500000e+01 2.000000e+01 0.000000e+00
    endloop
  endfacet
  facet normal 0.000000e+00 0.000000e+00 -1.000000e+00
    outer loop
      vertex   2.500000e+01 2.000000e+01 0.000000e+00
      vertex   1.925000e+01 1.720096e+01 0.000000e+00
      vertex   1.990954e+01 1.798697e+01 0.000000e+00
    endloop
  endfacet
  facet normal 0.000000e+00 0.000000e+00 -1.000000e+00
    outer loop
      vertex   2.500000e+01 2.000000e+01 0.000000e+00
      vertex   1.990954e+01 1.798697e+01 0.000000e+00
      vertex   1.990954e+01 1.901303e+01 0.000000e+00
    endloop
  endfacet
  facet normal -0.000000e+00 0.000000e+00 -1.000000e+00
    outer loop
      vertex   2.500000e+01 2.000000e+01 0.000000e+00
      vertex   1.990954e+01 1.901303e+01 0.000000e+00
      vertex   2.433013e+01 2.250000e+01 0.000000e+00
    endloop
  endfacet
  facet normal 0.000000e+00 0.000000e+00 -1.000000e+00
    outer loop
      vertex   2.433013e+01 2.250000e+01 0.000000e+00
      vertex   1.990954e+01 1.901303e+01 0.000000e+00
      vertex   1.925000e+01 1.979904e+01 0.000000e+00
    endloop
  endfacet
  facet normal 0.000000e+00 0.000000e+00 -1.000000e+00
    outer loop
      vertex   5.000000e+00 0.000000e+00 0.000000e+00
      vertex   2.500000e+00 6.698730e-01 0.000000e+00
      vertex   0.000000e+00 5.000000e+00 0.000000e+00
    endloop
  endfacet
  facet normal 0.000000e+00 0.000000e+00 -1.000000e+00
    outer loop
      vertex   0.000000e+00 5.000000e+00 0.000000e+00
      vertex   2.500000e+00 6.698730e-01 0.000000e+00
      vertex   6.698730e-01 2.500000e+00 0.000000e+00
    endloop
  endfacet
endsolid
